<?xml version="1.0" encoding="UTF-8"?>
<svg width="32px" height="32px" viewBox="0 0 32 32" version="1.1" xmlns="http://www.w3.org/2000/svg" xmlns:xlink="http://www.w3.org/1999/xlink">
    <!-- Generator: Sketch 44.1 (41455) - http://www.bohemiancoding.com/sketch -->
    <title>不可选</title>
    <desc>Created with Sketch.</desc>
    <defs></defs>
    <g id="Symbols" stroke="none" stroke-width="1" fill="none" fill-rule="evenodd">
        <g id="不可选">
            <g transform="translate(0.000000, 1.000000)" id="Combined-Shape">
                <path d="M28.0003662,28 C27.0881599,29.2144467 25.6358178,30 24,30 L8,30 C6.36418217,30 4.91184014,29.2144467 3.99963381,28 L3,28 C1.34314575,28 2.02906125e-16,26.6568542 5.91645679e-31,25 L5.91645679e-31,8 C-2.02906125e-16,6.34314575 1.34314575,5 3,5 C3.00014746,2.23870165 5.2386672,0.000272853364 8,0.000272853364 L8,0.000272853364 L24,0.000272853364 L24,0.000272853364 C26.7613328,0.000272853364 28.9998525,2.23870164 29,5 C30.6568542,5 32,6.34314575 32,8 L32,25 C32,26.6568542 30.6568542,28 29,28 L28.0003662,28 Z" fill="#DDE0E5"></path>
                <path d="M25,24 L25,8 C25,6.34314575 26.3431458,5 28,5 C28,2.790861 26.209139,1 24,1 L24,1 L8,1 L8,1 C5.790861,1 4,2.790861 4,5 L4,5 L4,5 L4,5 C5.65685425,5 7,6.34314575 7,8 L7,24 L25,24 Z M25,25 L7,25 C7,26.2587905 6.22471486,27.3365035 5.1255922,27.7816913 C5.85278108,28.5329646 6.87184955,29 8,29 L8,29 L24,29 C25.1281504,29 26.1472189,28.5329646 26.8744078,27.7816913 C25.7752851,27.3365035 25,26.2587905 25,25 Z M3,5 C3,2.23857625 5.23857625,5.8363145e-15 8,5.32907052e-15 L8,9.29659995e-15 L24,2.38680603e-14 L24,2.84217094e-14 C26.7614237,3.03670934e-14 29,2.23857625 29,5 C30.6568542,5 32,6.34314575 32,8 L32,25 C32,26.6568542 30.6568542,28 29,28 L28.0001612,28 C27.0879423,29.2142915 25.6356953,29.9997271 24,29.9997271 L8,29.9997271 C6.36430468,29.9997271 4.91205768,29.2142915 3.99983878,28 L3,28 C1.34314575,28 4.4408921e-16,26.6568542 4.4408921e-16,25 L4.4408921e-16,8 C4.4408921e-16,6.34314575 1.34314575,5 3,5 Z M3,5 L3,5 Z M28,6 C26.8954305,6 26,6.8954305 26,8 L26,25 C26,26.1045695 26.8954305,27 28,27 L29,27 C30.1045695,27 31,26.1045695 31,25 L31,8 C31,6.8954305 30.1045695,6 29,6 L28,6 Z M3,6 L3,6 C1.8954305,6 1,6.8954305 1,8 L1,25 C1,26.1045695 1.8954305,27 3,27 L4,27 C5.1045695,27 6,26.1045695 6,25 L6,8 C6,6.8954305 5.1045695,6 4,6 L3,6 Z" fill="#C3C3C3"></path>
                <path d="M16,14 C18.7614237,14 21,11.7614237 21,9 C21,6.23857625 18.7614237,4 16,4 C13.2385763,4 11,6.23857625 11,9 C11,11.7614237 13.2385763,14 16,14 Z M14.1859195,14.720877 C11.7589298,13.9519846 10,11.6814023 10,9 C10,5.6862915 12.6862915,3 16,3 C19.3137085,3 22,5.6862915 22,9 C22,11.6814023 20.2410702,13.9519846 17.8140805,14.720877 C21.079747,15.5320779 23.5,18.4833988 23.5,22 C23.5,22.2761424 23.2761424,22.5 23,22.5 C22.7238576,22.5 22.5,22.2761424 22.5,22 C22.5,18.4101491 19.5898509,15.5 16,15.5 C12.4101491,15.5 9.5,18.4101491 9.5,22 C9.5,22.2761424 9.27614237,22.5 9,22.5 C8.72385763,22.5 8.5,22.2761424 8.5,22 C8.5,18.4833988 10.920253,15.5320779 14.1859195,14.720877 Z" fill="#C3C3C3" fill-rule="nonzero"></path>
            </g>
        </g>
    </g>
</svg>