<?xml version="1.0" encoding="UTF-8"?>
<svg width="32px" height="32px" viewBox="0 0 32 32" version="1.1" xmlns="http://www.w3.org/2000/svg" xmlns:xlink="http://www.w3.org/1999/xlink">
    <!-- Generator: Sketch 44.1 (41455) - http://www.bohemiancoding.com/sketch -->
    <title>icon／选座边框</title>
    <desc>Created with Sketch.</desc>
    <defs></defs>
    <g id="Symbols" stroke="none" stroke-width="1" fill="none" fill-rule="evenodd" opacity="0.100000001">
        <g id="icon／选座边框" fill="#000000">
            <g id="可选" transform="translate(0.000000, 1.000000)">
                <path d="M3,6 L3,5.00027285 L3,5.00027285 C3,2.2388491 5.23857625,0.000272853209 8,0.000272853209 L8,0.000272853209 L24,0.000272853209 L24,0.000272853209 C26.7614237,0.000272853209 29,2.2388491 29,5.00027285 L29,6 L28,6 L28,5.00025466 C28,2.79111566 26.209139,1.00025466 24,1.00025466 L24,1.00025466 L8,1.00025466 L8,1.00025466 C5.790861,1.00025466 4,2.79111566 4,5.00025466 L4,5.00025466 L4,6 L3,6 Z M3.41604369,27 C4.18760031,28.7659048 5.94968096,30 8,30 L8,30 L24,30 C26.050319,30 27.8123997,28.7659048 28.5839563,27 L27.4648712,27 C26.7732524,28.1956027 25.4805647,29 24,29 L8,29 C6.51943529,29 5.22674762,28.1956027 4.53512878,27 L3.41604369,27 Z" id="Combined-Shape"></path>
                <path d="M28,5 L29,5 L29,5 C30.6568542,5 32,6.34314575 32,8 L32,24.9998363 C32,26.6566905 30.6568542,27.9998363 29,27.9998363 L28,27.9998363 L28,27.9998363 C26.3431458,27.9998363 25,26.6566905 25,24.9998363 L25,8 L25,8 C25,6.34314575 26.3431458,5 28,5 L28,5 Z M28,5.99998576 L28,5.99998576 C26.8954305,5.99998576 26,6.89541626 26,7.99998576 L26,7.99998576 L26,24.9998363 C26,26.1044058 26.8954305,26.9998363 28,26.9998363 L28,26.9998363 L29,26.9998363 C30.1045695,26.9998363 31,26.1044058 31,24.9998363 L31,7.99998576 C31,6.89541626 30.1045695,5.99998576 29,5.99998576 L29,5.99998576 L28,5.99998576 Z" id="Combined-Shape"></path>
                <path d="M3,5 L4,5 L4,5 C5.65685425,5 7,6.34314575 7,8 L7,24.9998363 C7,26.6566905 5.65685425,27.9998363 4,27.9998363 L3,27.9998363 L3,27.9998363 C1.34314575,27.9998363 -2.41183085e-16,26.6566905 -4.4408921e-16,24.9998363 L0,8 L0,8 C-2.02906125e-16,6.34314575 1.34314575,5 3,5 L3,5 Z M3,5.99998576 L3,5.99998576 C1.8954305,5.99998576 1,6.89541626 1,7.99998576 L1,7.99998576 L1,24.9998363 C1,26.1044058 1.8954305,26.9998363 3,26.9998363 L3,26.9998363 L4,26.9998363 C5.1045695,26.9998363 6,26.1044058 6,24.9998363 L6,7.99998576 C6,6.89541626 5.1045695,5.99998576 4,5.99998576 L4,5.99998576 L3,5.99998576 Z" id="Combined-Shape-Copy"></path>
                <rect id="Rectangle-2" x="7" y="24" width="18" height="1"></rect>
            </g>
        </g>
    </g>
</svg>