<svg data-name="图层 1" xmlns="http://www.w3.org/2000/svg" viewBox="0 0 1036 699" xlink="http://www.w3.org/1999/xlink" width="1036" height="699"><title>开心麻花-一层-疯狂理发店(THE BOX朝外店)</title><path d="M745,360H289.62V44.36H745Z" style="fill:#dee2e7"></path><path d="M459.48,206.11v8.45l9.07-3.46.58,4.66c-2,.53-9,2.78-14,4.7l-1.68-3.69a2.8,2.8,0,0,0,1.44-2.69v-4.85a100.13,100.13,0,0,1-10.17,5.43l-2-4.66c7-2.88,12.48-5.86,17.28-9.94H444.12v-3.93h18.1v-3.7h-14.4v-4.08h14.4V184.7H445.94v-4h16.28v-4.42l4.7.19v4.23h16.42v4H466.92v3.65h14.5v4.08h-14.5v3.7h18.24v3.93H466.87a25.51,25.51,0,0,0,3.56,5.72c3.31-1.92,6.67-4.13,8.93-5.67l2.49,3.94c-2.06,1.34-5.18,3.26-8,4.85,3.08,2.25,7,3.93,12.15,5.42l-1.82,4.42c-11-3.7-16.66-8.16-20.79-15.89C462.07,204,460.83,205,459.48,206.11Z" style="fill:#272829"></path><path d="M498.94,198.91a93.49,93.49,0,0,0-8.5-7.25l2.74-3.55a85.55,85.55,0,0,1,8.4,6.67Zm2.2,3.27c-.76,2.88-4,14.68-5,17.28l-4.75-1.35c1-2.73,4.37-13.73,5.33-17.18Zm-1.2-14.55a72.76,72.76,0,0,0-7.53-6.72l2.69-3.65c1.77,1.25,4.84,3.79,7,5.71v-2.16h12.49c-.39-1.48-.87-3-1.2-3.93l4.89-.63c.39,1,.87,2.83,1.39,4.56H532v9.27h-4.42v-5.19H506.52v5.19H502.1v-5.81Zm22,23.28c3.65,1.44,8.55,3.7,11.33,5.09l-1.39,4.46a121.08,121.08,0,0,0-12.15-5.85l1.49-3.7h-8.3l1.72,3.6a126.45,126.45,0,0,1-12.48,6.15l-2-4.37a78.19,78.19,0,0,0,12-5.38h-7.88V194.06h10.42v-2.49H507v-3.84h20.11v3.84H519v2.49h10.56v16.85Zm-13.25-13.1v3h6.05v-3Zm0,9.26h6.05v-2.78h-6.05ZM519,197.81v3h6.15v-3Zm6.15,6.48H519v2.78h6.15Z" style="fill:#272829"></path><path d="M579.87,213.41v4.65H541.46V178.6H579v4.76h-32.5v30Zm-33-5.33a113.56,113.56,0,0,0,11.91-10.42c-3.85-4-7.49-7.58-10-9.93l3.36-3.65c2.69,2.45,6.43,5.9,10.27,9.74a119.57,119.57,0,0,0,8.21-10.17l4,3.12A119,119,0,0,1,566,197.38c3.79,3.79,7.39,7.48,10.13,10.41l-3.5,4.66c-2.84-3.12-6.53-7.11-10.37-11.09a120.83,120.83,0,0,1-12.34,11Z" style="fill:#272829"></path><path d="M147.15,28.63a37.33,37.33,0,0,1-1.24,4.06,29.77,29.77,0,0,1-4.83.67c-6.29,0-9-4-9-7.66,0-4.8,4-8.09,9.45-8.09a16.43,16.43,0,0,1,4.54.68c.19,1.2.31,2.35.46,3.72l-.41.07c-.67-2.79-2.3-3.87-5.43-3.87-4.75,0-6.88,3.15-6.88,6.89,0,4.66,2.78,7.68,7,7.68,3.34,0,4.7-1.8,5.86-4.27Z" style="fill:#272829"></path><path d="M170.27,32.71c.14.15.21.24.21.31s-.09.12-.29.12H152.74l-.76.77c-.1.1-.17.15-.24.15a.42.42,0,0,1-.24-.12l-1.37-1.11,1.1-.86V17.35c0-1.2-.07-3-.09-3.91l1.77,1.46h13.85l.94-1.39,1.61,1.39q.24.22.24.36c0,.1-.1.17-.34.17H152.36V32.62h15.17l1.15-1.32ZM165,18.86a48.85,48.85,0,0,1-3.05,4.47A28.44,28.44,0,0,1,166,27.14a2.16,2.16,0,0,1,.48,1.4c0,.67-.31,1.22-.67,1.22s-.45-.19-.81-1.1a16.86,16.86,0,0,0-3.73-4.52,24.38,24.38,0,0,1-7.53,6.44l-.12-.34a31.88,31.88,0,0,0,7-6.74c-1.78-1.61-3.72-3.22-5.69-4.69l.22-.26a57.85,57.85,0,0,1,6,4.15,32.74,32.74,0,0,0,3.19-5.83l1.54,1.37c.12.09.17.17.17.24s-.07.09-.24.14Z" style="fill:#272829"></path><path d="M250.27,533.94c1.37-.19,1.88-.33,1.88-.91a23.2,23.2,0,0,0-1.61-4.7H245a22.67,22.67,0,0,0-1.44,4.44c0,.81.65,1,2,1.17v.34H240.1v-.34c1.68-.33,2-.55,2.88-2.71L248.19,519l.28-.12,1.61,4.44c1.11,3,2.19,6,3.1,8.31.72,1.77.91,2,2.59,2.3v.34h-5.5ZM248,521.13c-1,2.13-1.9,4.41-2.67,6.43h5L248,521.13Z"></path><path d="M278.72,534c.14.14.21.24.21.31s-.09.12-.29.12H261.19l-.76.77c-.1.1-.17.14-.24.14a.37.37,0,0,1-.24-.12l-1.37-1.1,1.1-.86V518.63c0-1.2-.07-3-.09-3.91l1.77,1.46h13.85l.94-1.39,1.61,1.39c.16.15.24.26.24.36s-.1.17-.34.17H260.81v17.18H276l1.15-1.32Zm-5.31-13.85a46.91,46.91,0,0,1-3.05,4.47,28.44,28.44,0,0,1,4.08,3.81,2.14,2.14,0,0,1,.48,1.39c0,.68-.31,1.23-.67,1.23s-.45-.19-.81-1.11a16.82,16.82,0,0,0-3.73-4.51,24.21,24.21,0,0,1-7.53,6.43l-.12-.33a31.7,31.7,0,0,0,7-6.75c-1.78-1.6-3.72-3.21-5.69-4.68l.22-.26a57.85,57.85,0,0,1,6,4.15,32.74,32.74,0,0,0,3.19-5.83l1.54,1.37c.12.09.17.17.17.24s-.07.09-.24.14Z"></path><path d="M867.55,33.56c2.16-.09,2.33-.5,2.33-2.4V21.61c0-1.87-.14-2.28-2.16-2.37v-.37h5.81c3.34,0,4.63,1.23,4.63,3.32s-2,3.07-3.09,3.33v.05c2.11.31,4.15,1.56,4.15,3.87a3.93,3.93,0,0,1-2.31,3.62,10,10,0,0,1-4.56.84h-4.8Zm5.36-8.13c2.66,0,3.79-1.13,3.79-3,0-1-.39-3-3.91-3a12.31,12.31,0,0,0-1.33,0c-.16,0-.28.07-.28.53v5.5Zm-1.73.5v5.35c0,1.59.31,2.07,2.2,2.07,2.36,0,4.2-.91,4.2-3.55s-1.91-3.87-4.7-3.87Z"></path><path d="M902.71,33.61c.15.15.22.24.22.31s-.1.12-.29.12H885.19l-.77.77c-.09.1-.16.15-.24.15a.48.48,0,0,1-.24-.12l-1.36-1.11,1.1-.86V18.25c0-1.2-.07-3-.1-3.91l1.78,1.46h13.85l.94-1.39,1.6,1.39c.17.15.24.27.24.36s-.09.17-.33.17H884.81V33.52H900l1.15-1.32Zm-5.3-13.85a47.52,47.52,0,0,1-3,4.47A28.44,28.44,0,0,1,898.44,28a2.16,2.16,0,0,1,.48,1.4c0,.67-.31,1.22-.67,1.22s-.46-.19-.82-1.1A16.75,16.75,0,0,0,893.71,25a24.38,24.38,0,0,1-7.53,6.44l-.12-.34a31.88,31.88,0,0,0,7-6.74c-1.78-1.61-3.72-3.22-5.69-4.68l.21-.27a58,58,0,0,1,6,4.15,32.74,32.74,0,0,0,3.19-5.83l1.54,1.37c.12.1.17.17.17.24s-.08.09-.24.14Z"></path><path d="M1021.62,437h-269V44.36h269Z" style="fill:#fff;stroke:#e1e5ea;stroke-miterlimit:10;stroke-width:5px" floorId = "25473006" ></path><path d="M742.7,681H291.92V370H742.7Z" style="fill:#fff;stroke:#e1e5ea;stroke-miterlimit:10;stroke-width:5px" floorId = "25473008" ></path><path d="M282,437H13V44.36H282Z" style="fill:#fff;stroke:#e1e5ea;stroke-miterlimit:10;stroke-width:5px" floorId = "25473007" ></path><text x="887.12" y="240.68" dominant-baseline="middle" text-anchor="middle" transform="matrix(1 0 0 1 0 0)" style="fill: rgb(51, 51, 51); font-size: 1px; stroke: transparent; stroke-width: 1px; line-height: 1.16;">B区</text><text x="517.3100000000001" y="525.5" dominant-baseline="middle" text-anchor="middle" transform="matrix(1 0 0 1 0 0)" style="fill: rgb(51, 51, 51); font-size: 1px; stroke: transparent; stroke-width: 1px; line-height: 1.16;">A区</text><text x="147.5" y="240.68" dominant-baseline="middle" text-anchor="middle" transform="matrix(1 0 0 1 0 0)" style="fill: rgb(51, 51, 51); font-size: 1px; stroke: transparent; stroke-width: 1px; line-height: 1.16;">C区</text></svg>
