<?xml version="1.0" encoding="UTF-8"?>
<svg width="32px" height="32px" viewBox="0 0 32 32" version="1.1" xmlns="http://www.w3.org/2000/svg" xmlns:xlink="http://www.w3.org/1999/xlink">
    <!-- Generator: Sketch 52.2 (67145) - http://www.bohemiancoding.com/sketch -->
    <title>IOS小座位带小锁</title>
    <desc>Created with Sketch.</desc>
    <g id="IOS小座位带小锁" stroke="none" stroke-width="1" fill="none" fill-rule="evenodd">
        <g id="Group" transform="translate(0.000000, 0.500000)" fill="#F5F5F5" stroke="#D3D3D3">
            <path d="M11,0.5 C6.85786438,0.5 3.5,3.85786438 3.5,8 L3.5,27 C3.5,28.9329966 5.06700338,30.5 7,30.5 L25,30.5 C26.9329966,30.5 28.5,28.9329966 28.5,27 L28.5,8 C28.5,3.85786438 25.1421356,0.5 21,0.5 L11,0.5 Z" id="Rectangle-Copy-2"></path>
            <path d="M31.5,14.5 C31.5,12.8431458 30.1568542,11.5 28.5,11.5 C26.8431458,11.5 25.5,12.8431458 25.5,14.5 L25.5,22.5 C25.5,23.8807119 24.3807119,25 23,25 L9,25 C7.61928813,25 6.5,23.8807119 6.5,22.5 L6.5,14.5 C6.5,12.8431458 5.15685425,11.5 3.5,11.5 C1.84314575,11.5 0.5,12.8431458 0.5,14.5 L0.5,25.5 C0.5,28.5375661 2.96243388,31 6,31 L26,31 C29.0375661,31 31.5,28.5375661 31.5,25.5 L31.5,14.5 Z" id="Combined-Shape-Copy"></path>
        </g>
        <g id="锁-(1)" transform="translate(12.000000, 8.000000)" fill="#C1C1C1" fill-rule="nonzero">
            <path d="M8.56915897,4.5132396 L7.67246708,4.5132396 L7.67246708,3.14516385 C7.67246708,1.41038737 6.24914661,0 4.49846244,0 C2.74777827,0 1.32445781,1.41038737 1.32445781,3.14516385 L1.32445781,4.5132396 L0.427765919,4.5132396 C0.18580144,4.5132396 0.000769779727,4.69658996 0.000769779727,4.93635581 L0.000769779727,11.5651765 C-0.0134634249,11.7908385 0.171568235,11.9741888 0.399299509,11.9882927 L8.56915897,11.9882927 C8.79689024,12.0023966 8.9819219,11.8190462 8.99615511,11.5933842 L8.99615511,4.93635581 C8.99615511,4.69658996 8.81112345,4.5132396 8.56915897,4.5132396 Z M4.92545858,8.94185595 L4.92545858,10.0419581 L4.0714663,10.0419581 L4.0714663,8.94185595 C3.68716978,8.77260947 3.4452053,8.40590875 3.4452053,7.99689641 C3.4452053,7.41863759 3.91490105,6.95320976 4.49846244,6.95320976 C5.08202383,6.95320976 5.55171959,7.41863759 5.55171959,7.99689641 C5.55171959,8.40590875 5.30975511,8.77260947 4.92545858,8.94185595 Z M6.8184748,4.5132396 L2.17845009,4.5132396 L2.17845009,3.14516385 C2.17845009,1.87581521 3.21747403,0.846232425 4.49846244,0.846232425 C5.77945086,0.846232425 6.8184748,1.87581521 6.8184748,3.14516385 L6.8184748,4.5132396 Z" id="Shape"></path>
        </g>
    </g>
</svg>