<?xml version="1.0" encoding="UTF-8"?>
<svg width="32px" height="32px" viewBox="0 0 32 32" version="1.1" xmlns="http://www.w3.org/2000/svg" xmlns:xlink="http://www.w3.org/1999/xlink">
    <!-- Generator: Sketch 52.2 (67145) - http://www.bohemiancoding.com/sketch -->
    <title>已售/锁定</title>
    <desc>Created with Sketch.</desc>
    <g id="Page-1" stroke="none" stroke-width="1" fill="none" fill-rule="evenodd">
        <g id="Group" transform="translate(0.000000, 0.500000)" fill="#F5F5F5" stroke="#D3D3D3">
            <path d="M11,0.5 C6.85786438,0.5 3.5,3.85786438 3.5,8 L3.5,27 C3.5,28.9329966 5.06700338,30.5 7,30.5 L25,30.5 C26.9329966,30.5 28.5,28.9329966 28.5,27 L28.5,8 C28.5,3.85786438 25.1421356,0.5 21,0.5 L11,0.5 Z" id="Rectangle-Copy-2"></path>
            <path d="M31.5,14.5 C31.5,12.8431458 30.1568542,11.5 28.5,11.5 C26.8431458,11.5 25.5,12.8431458 25.5,14.5 L25.5,22.5 C25.5,23.8807119 24.3807119,25 23,25 L9,25 C7.61928813,25 6.5,23.8807119 6.5,22.5 L6.5,14.5 C6.5,12.8431458 5.15685425,11.5 3.5,11.5 C1.84314575,11.5 0.5,12.8431458 0.5,14.5 L0.5,25.5 C0.5,28.5375661 2.96243388,31 6,31 L26,31 C29.0375661,31 31.5,28.5375661 31.5,25.5 L31.5,14.5 Z" id="Combined-Shape-Copy"></path>
        </g>
    </g>
</svg>