<?xml version="1.0" encoding="UTF-8"?>
<svg width="32px" height="32px" viewBox="0 0 32 32" version="1.1" xmlns="http://www.w3.org/2000/svg" xmlns:xlink="http://www.w3.org/1999/xlink">
    <!-- Generator: Sketch 52.2 (67145) - http://www.bohemiancoding.com/sketch -->
    <title>圆_套票</title>
    <desc>Created with Sketch.</desc>
    <g id="Page-1" stroke="none" stroke-width="1" fill="none" fill-rule="evenodd">
        <circle id="Oval-Copy" stroke="#BD3382" fill="#FDDCEF" cx="16" cy="16" r="14.5" tag="1"></circle>
        <path d="M18.168,13.484 C17.58,13.076 17.112,12.644 16.752,12.188 L15.396,12.188 C14.988,12.668 14.508,13.1 13.956,13.484 L18.168,13.484 Z M17.688,12.188 C18.504,12.98 19.74,13.604 21.396,14.06 L21.012,14.864 C20.136,14.552 19.38,14.216 18.744,13.844 L18.744,14.204 L13.776,14.204 L13.776,14.936 L19.344,14.936 L19.344,15.632 L13.776,15.632 L13.776,16.352 L19.344,16.352 L19.344,17.048 L13.776,17.048 L13.776,17.804 L21.072,17.804 L21.072,18.584 L14.82,18.584 C14.34,19.376 13.884,19.988 13.452,20.42 C15.252,20.324 16.992,20.144 18.648,19.88 C18.42,19.544 18.192,19.232 17.952,18.944 L18.696,18.692 C19.332,19.436 19.884,20.228 20.352,21.08 L19.572,21.428 C19.416,21.128 19.26,20.852 19.104,20.588 C16.884,20.912 14.556,21.116 12.132,21.212 L11.916,20.492 C12.504,20.444 13.14,19.808 13.812,18.584 L10.752,18.584 L10.752,17.804 L12.936,17.804 L12.936,14.096 C12.312,14.408 11.64,14.684 10.908,14.912 L10.5,14.18 C12.168,13.676 13.44,13.004 14.316,12.188 L10.92,12.188 L10.92,11.396 L15.012,11.396 C15.24,11.084 15.42,10.748 15.564,10.4 L16.404,10.496 C16.284,10.808 16.128,11.108 15.96,11.396 L20.916,11.396 L20.916,12.188 L17.688,12.188 Z" id="套" fill="#ffffff" opacity="1" transform="translate(-3,-3) scale(1.2)"></path>
    </g>
</svg>