<?xml version="1.0" encoding="UTF-8"?>
<svg width="32px" height="32px" viewBox="0 0 32 32" version="1.1" xmlns="http://www.w3.org/2000/svg" xmlns:xlink="http://www.w3.org/1999/xlink">
    <!-- Generator: Sketch 44.1 (41455) - http://www.bohemiancoding.com/sketch -->
    <title>选中</title>
    <desc>Created with Sketch.</desc>
    <defs></defs>
    <g id="Symbols" stroke="none" stroke-width="1" fill="none" fill-rule="evenodd">
        <g id="选中">
            <g transform="translate(0.000000, 1.000000)">
                <path d="M28.0003662,28 C27.0881599,29.2144467 25.6358178,30 24,30 L8,30 C6.36418217,30 4.91184014,29.2144467 3.99963381,28 L3,28 C1.34314575,28 6.46995335e-16,26.6568542 4.4408921e-16,25 L0,8 L4.4408921e-16,8 C2.41183085e-16,6.34314575 1.34314575,5 3,5 C3.00014746,2.23870165 5.2386672,0.000272853501 8,0.000272853501 L8,0.000272853501 L24,0.000272853501 L24,0.000272853501 C26.7613328,0.000272853501 28.9998525,2.23870164 29,5 C30.6568542,5 32,6.34314575 32,8 L32,25 C32,26.6568542 30.6568542,28 29,28 L28.0003662,28 Z" id="Combined-Shape" fill="#63C54C"></path>
                <path d="M25,24 L25,8 C25,6.34314575 26.3431458,5 28,5 C28,2.790861 26.209139,1 24,1 L24,1 L8,1 L8,1 C5.790861,1 4,2.790861 4,5 L4,5 L4,5 C5.65685425,5 7,6.34314575 7,8 L7,24 L25,24 Z M25,25 L7,25 C7,26.2587905 6.22471486,27.3365035 5.1255922,27.7816913 C5.85278108,28.5329646 6.87184955,29 8,29 L24,29 C25.1281504,29 26.1472189,28.5329646 26.8744078,27.7816913 C25.7752851,27.3365035 25,26.2587905 25,25 Z M3,5 C3,2.23857625 5.23857625,2.28360083e-15 8,1.77635684e-15 L8,2.56847495e-15 L24,2.56847495e-15 L24,1.77635684e-15 C26.7614237,1.26911285e-15 29,2.23857625 29,5 C30.6568542,5 32,6.34314575 32,8 L32,25 C32,26.6568542 30.6568542,28 29,28 L28.0001612,28 C27.0879423,29.2142915 25.6356953,29.9997271 24,29.9997271 L8,29.9997271 C6.36430468,29.9997271 4.91205768,29.2142915 3.99983878,28 L3,28 C1.34314575,28 0,26.6568542 0,25 L0,8 C0,6.34314575 1.34314575,5 3,5 Z M3,5 L3,5 Z M4,5 L4,5 Z M28,6 C26.8954305,6 26,6.8954305 26,8 L26,25 C26,26.1045695 26.8954305,27 28,27 L29,27 C30.1045695,27 31,26.1045695 31,25 L31,8 C31,6.8954305 30.1045695,6 29,6 L28,6 Z M3,6 L3,6 C1.8954305,6 1,6.8954305 1,8 L1,25 C1,26.1045695 1.8954305,27 3,27 L4,27 C5.1045695,27 6,26.1045695 6,25 L6,8 C6,6.8954305 5.1045695,6 4,6 L3,6 Z" id="Combined-Shape" fill="#47A231"></path>
                <path d="M10.7434089,13.6100364 C10.3740203,13.199463 9.74173619,13.1660761 9.33116279,13.5354647 C8.9205894,13.9048533 8.88720251,14.5371374 9.2565911,14.9477108 L13.5041391,19.6688372 C13.8915408,20.0994322 14.5625961,20.1118619 14.9656782,19.6959088 L22.7181302,11.6959088 C23.10247,11.2992964 23.0925211,10.6662096 22.6959088,10.2818698 C22.2992964,9.89752999 21.6662096,9.90747888 21.2818698,10.3040912 L14.2746831,17.5350284 L10.7434089,13.6100364 Z" id="Path-4" fill="#FFFFFF" fill-rule="nonzero"></path>
            </g>
        </g>
    </g>
</svg>