<?xml version="1.0" encoding="UTF-8"?>
<svg width="32px" height="32px" viewBox="0 0 32 32" version="1.1" xmlns="http://www.w3.org/2000/svg" xmlns:xlink="http://www.w3.org/1999/xlink">
    <!-- Generator: Sketch 44.1 (41455) - http://www.bohemiancoding.com/sketch -->
    <title>可选-1</title>
    <desc>Created with Sketch.</desc>
    <defs></defs>
    <g id="Symbols" stroke="none" stroke-width="1" fill="none" fill-rule="evenodd">
        <g id="可选-1">
            <g id="可选" transform="translate(0.000000, 1.000000)">
                <path d="M3,5.00016371 C3.00005898,2.23879012 5.23861263,0.000272853209 8,0.000272853209 L8,0.000272853209 L24,0.000272853209 L24,0.000272853209 C26.7613874,0.000272853209 28.999941,2.23879012 29,5.00016371 C30.6568542,5.00016371 32,6.34330946 32,8.00016371 L32,25 C32,26.6568542 30.6568542,28 29,28 L28.0003662,28 C27.0881599,29.2144467 25.6358178,30 24,30 L8,30 C6.36418217,30 4.91184014,29.2144467 3.99963381,28 L3,28 C1.34314575,28 -2.41183085e-16,26.6568542 -4.4408921e-16,25 L-4.4408921e-16,8.00016371 L-8.8817842e-16,8.00016371 C-1.09108455e-15,6.34330946 1.34314575,5.00016371 3,5.00016371 Z" id="Combined-Shape" fill="#FD6566"  tag="2"></path>
                <path d="M3.5,5 L3.5,5.5 L3,5.5 C1.61928813,5.5 0.5,6.61928813 0.5,8 L0.5,24.9998363 C0.5,26.3805482 1.61928813,27.4998363 3,27.4998363 L4.24929792,27.4998363 L4.39930631,27.6995638 C5.24462583,28.8250577 6.56575482,29.5 8,29.5 L24,29.5 C25.4342452,29.5 26.7553742,28.8250577 27.6006937,27.6995638 L27.7507021,27.4998363 L28.0004892,27.4998363 L29,27.4998363 C30.3807119,27.4998363 31.5,26.3805482 31.5,24.9998363 L31.5,8 C31.5,6.61928813 30.3807119,5.5 29,5.5 L28.5,5.5 L28.5,5 C28.5,2.51471863 26.4852814,0.5 24,0.5 L8,0.5 C5.51471863,0.5 3.5,2.51471863 3.5,5 Z M28,5.49998576 L29,5.49998576 C30.3807119,5.49998576 31.5,6.61927389 31.5,7.99998576 L31.5,24.9998363 C31.5,26.3805482 30.3807119,27.4998363 29,27.4998363 L28,27.4998363 C26.6192881,27.4998363 25.5,26.3805482 25.5,24.9998363 L25.5,7.99998576 C25.5,6.61927389 26.6192881,5.49998576 28,5.49998576 Z M3,5.49998576 L4,5.49998576 C5.38071187,5.49998576 6.5,6.61927389 6.5,7.99998576 L6.5,24.9998363 C6.5,26.3805482 5.38071187,27.4998363 4,27.4998363 L3,27.4998363 C1.61928813,27.4998363 0.5,26.3805482 0.5,24.9998363 L0.5,7.99998576 C0.5,6.61927389 1.61928813,5.49998576 3,5.49998576 Z" id="Combined-Shape" stroke="#DD3637" tag="1"></path>
                <rect id="Path" fill="#DD3637" x="7" y="24" width="18" height="1" tag="1"></rect>
            </g>
        </g>
    </g>
</svg>