<?xml version="1.0" encoding="UTF-8"?>
<svg width="32px" height="32px" viewBox="0 0 32 32" version="1.1" xmlns="http://www.w3.org/2000/svg" xmlns:xlink="http://www.w3.org/1999/xlink">
    <!-- Generator: Sketch 52.2 (67145) - http://www.bohemiancoding.com/sketch -->
    <title>圆_锁定</title>
    <desc>Created with Sketch.</desc>
    <g id="圆_锁定" stroke="none" stroke-width="1" fill="none" fill-rule="evenodd">
        <circle id="Oval-Copy-2" stroke="#D3D3D3" fill="#F5F5F5" cx="16" cy="16" r="14.5"></circle>
        <path d="M18.244,12.28 C17.656,11.872 17.188,11.44 16.828,10.984 L15.472,10.984 C15.064,11.464 14.584,11.896 14.032,12.28 L18.244,12.28 Z M17.764,10.984 C18.58,11.776 19.816,12.4 21.472,12.856 L21.088,13.66 C20.212,13.348 19.456,13.012 18.82,12.64 L18.82,13 L13.852,13 L13.852,13.732 L19.42,13.732 L19.42,14.428 L13.852,14.428 L13.852,15.148 L19.42,15.148 L19.42,15.844 L13.852,15.844 L13.852,16.6 L21.148,16.6 L21.148,17.38 L14.896,17.38 C14.416,18.172 13.96,18.784 13.528,19.216 C15.328,19.12 17.068,18.94 18.724,18.676 C18.496,18.34 18.268,18.028 18.028,17.74 L18.772,17.488 C19.408,18.232 19.96,19.024 20.428,19.876 L19.648,20.224 C19.492,19.924 19.336,19.648 19.18,19.384 C16.96,19.708 14.632,19.912 12.208,20.008 L11.992,19.288 C12.58,19.24 13.216,18.604 13.888,17.38 L10.828,17.38 L10.828,16.6 L13.012,16.6 L13.012,12.892 C12.388,13.204 11.716,13.48 10.984,13.708 L10.576,12.976 C12.244,12.472 13.516,11.8 14.392,10.984 L10.996,10.984 L10.996,10.192 L15.088,10.192 C15.316,9.88 15.496,9.544 15.64,9.196 L16.48,9.292 C16.36,9.604 16.204,9.904 16.036,10.192 L20.992,10.192 L20.992,10.984 L17.764,10.984 Z" id="套" fill="#ffffff" opacity="1" transform="translate(-3,-2) scale(1.2)"></path>
    </g>
</svg>