<svg xmlns:xlink="http://www.w3.org/1999/xlink" width="5888" height="5904" transform="scale(0.18)"
    xmlns="http://www.w3.org/2000/svg">
    <title>区域图</title>
    <path d="M2954.07,5685.82a2720.31,2720.31,0,1,1,548.32-55.36A2740.46,2740.46,0,0,1,2954.07,5685.82Z" style="fill:#ddd" data-spm-anchor-id="a2o7u.seatMake.0.i1.4d0f31ebTH9UMD"></path>
    <rect x="2418.27" y="1825.24" width="1110.01" height="2273.51" style="fill:#44bdcf"></rect>
    <path d="M3511.57,4082H2435V1842H3511.57V4082m33.43,33.43V1808.53H2401.56V4115.47H3545Z" style="fill:#999" data-spm-anchor-id="a2o7u.seatMake.0.i4.4d0f31ebTH9UMD"></path>
    <rect x="2471.77" y="1883.58" width="998.01" height="2156.86" style="fill:#45b2c2" data-spm-anchor-id="a2o7u.seatMake.0.i3.4d0f31ebTH9UMD"></rect>
    <rect x="2548.67" y="2381.45" width="840.87" height="10.03" style="fill:#FFFFFF"></rect>
    <rect x="2543.65" y="1888.3" width="10.03" height="2146.46" style="fill:#FFFFFF"></rect>
    <rect x="3384.52" y="1888.3" width="10.03" height="2146.46" style="fill:#FFFFFF"></rect>
    <path d="M2548.67,2966.55v-10h20.06v10Zm30.09,0v-10h20.06v10Zm30.09,0v-10h20.06v10Zm30.09,0v-10H2659v10Zm30.09,0v-10h20.06v10Zm30.09,0v-10h20.06v10Zm30.09,0v-10h20.06v10Zm30.09,0v-10h20.06v10Zm30.09,0v-10h20.06v10Zm30.09,0v-10h20.06v10Zm30.09,0v-10h20.06v10Zm30.09,0v-10h20.06v10Zm30.09,0v-10h20.06v10Zm30.09,0v-10h20.06v10Zm30.09,0v-10H2990v10Zm30.09,0v-10h20.06v10Zm30.09,0v-10h20.06v10Zm30.09,0v-10h20.06v10Zm30.09,0v-10h20.06v10Zm30.09,0v-10h20.06v10Zm30.09,0v-10h20.06v10Zm30.09,0v-10h20.06v10Zm30.09,0v-10h20.06v10Zm30.09,0v-10h20.06v10Zm30.09,0v-10h20.06v10Zm30.09,0v-10H3321v10Zm30.09,0v-10h20.06v10Zm30.09,0v-10h20.06v10Z" style="fill:#FFFFFF"></path>
    <rect x="2548.67" y="3543.29" width="840.87" height="10.03" style="fill:#FFFFFF"></rect>
    <rect x="2943.19" y="2386.47" width="10.03" height="1161.83" style="fill:#FFFFFF"></rect>
    <path d="M2461.74,4045.45V1878.57h1008V4045.45Zm8.92-2156.86V4035.42h990.2V1888.6Z" style="fill:#FFFFFF" data-spm-anchor-id="a2o7u.seatMake.0.i9.4d0f31ebTH9UMD"></path>
    <polygon points="4339 2353 4299 2353 4259 2353 4259 2481.5 4299 2481.5 4339 2481.5 4339 2353" style="fill:#FFFFFF;stroke:#333;stroke-miterlimit:10" floorId = "17602712"></polygon>
    <polygon points="4339 2484.5 4299 2484.5 4259 2484.5 4259 2613 4299 2613 4339 2613 4339 2484.5" style="fill:#FFFFFF;stroke:#333;stroke-miterlimit:10" floorId = "17602713"></polygon>
    <polygon points="4459 2353 4419 2353 4379 2353 4379 2481.5 4419 2481.5 4459 2481.5 4459 2353" style="fill:#FFFFFF;stroke:#333;stroke-miterlimit:10" floorId = "17602714"></polygon>
    <polygon points="4459 2484.5 4419 2484.5 4379 2484.5 4379 2613 4419 2613 4459 2613 4459 2484.5" style="fill:#FFFFFF;stroke:#333;stroke-miterlimit:10" floorId = "17602715"></polygon>
    <polygon points="4219 2353 4179 2353 4139 2353 4139 2481.5 4179 2481.5 4219 2481.5 4219 2353" style="fill:#FFFFFF;stroke:#333;stroke-miterlimit:10" floorId = "17602708"></polygon>
    <polygon points="4219 2484.5 4179 2484.5 4139 2484.5 4139 2613 4179 2613 4219 2613 4219 2484.5" style="fill:#FFFFFF;stroke:#333;stroke-miterlimit:10" floorId = "17602709"></polygon>
    <polygon points="4339 2089 4299 2089 4259 2089 4259 2218.5 4299 2218.5 4339 2218.5 4339 2089" style="fill:#FFFFFF;stroke:#333;stroke-miterlimit:10" floorId = "17602710"></polygon>
    <polygon points="4339 2221.5 4299 2221.5 4259 2221.5 4259 2350 4299 2350 4339 2350 4339 2221.5" style="fill:#FFFFFF;stroke:#333;stroke-miterlimit:10" floorId = "17602711"></polygon>
    <polygon points="4099 2353 4059 2353 4020.5 2353 4020.5 2481.5 4059 2481.5 4099 2481.5 4099 2353" style="fill:#FFFFFF;stroke:#333;stroke-miterlimit:10" floorId = "17602704"></polygon>
    <polygon points="4219 1892 4179 1892 4139 1892 4139 2033 4179 2033 4219 2033 4219 1892" style="fill:#FFFFFF;stroke:#333;stroke-miterlimit:10" floorId = "17602576"></polygon>
    <polygon points="4099 2484.5 4059 2484.5 4020.5 2484.5 4020.5 2613 4059 2613 4099 2613 4099 2484.5" style="fill:#FFFFFF;stroke:#333;stroke-miterlimit:10" floorId = "17602705"></polygon>
    <polygon points="4219 2089 4179 2089 4139 2089 4139 2218.5 4179 2218.5 4219 2218.5 4219 2089" style="fill:#FFFFFF;stroke:#333;stroke-miterlimit:10" floorId = "17602706"></polygon>
    <polygon points="4219 2221.5 4179 2221.5 4139 2221.5 4139 2350 4179 2350 4219 2350 4219 2221.5" style="fill:#FFFFFF;stroke:#333;stroke-miterlimit:10" floorId = "17602707"></polygon>
    <polygon points="4099 2962 4059 2962 4020.5 2962 4020.5 3102.5 4059 3102.5 4099 3102.5 4099 2962" style="fill:#FFFFFF;stroke:#333;stroke-miterlimit:10" floorId = "17602700"></polygon>
    <polygon points="4099 3105.5 4059 3105.5 4020.5 3105.5 4020.5 3251 4059 3251 4099 3251 4099 3105.5" style="fill:#FFFFFF;stroke:#333;stroke-miterlimit:10" floorId = "17602701"></polygon>
    <polygon points="4099 2089 4059 2089 4020.5 2089 4020.5 2218.5 4059 2218.5 4099 2218.5 4099 2089" style="fill:#FFFFFF;stroke:#333;stroke-miterlimit:10" floorId = "17602702"></polygon>
    <path d="M4099,1751q-19.66-18.6-40-36.64-19-16.86-38.5-33.14V1889H4099Z" style="fill:#FFFFFF;stroke:#333;stroke-miterlimit:10" floorId = "17602574"></path>
    <polygon points="4099 2221.5 4059 2221.5 4020.5 2221.5 4020.5 2350 4059 2350 4099 2350 4099 2221.5" style="fill:#FFFFFF;stroke:#333;stroke-miterlimit:10" floorId = "17602703"></polygon>
    <polygon points="4099 1892 4059 1892 4020.5 1892 4020.5 2033 4059 2033 4099 2033 4099 1892" style="fill:#FFFFFF;stroke:#333;stroke-miterlimit:10" floorId = "17602575"></polygon>
    <polygon points="4219 2962 4179 2962 4139 2962 4139 3102.5 4179 3102.5 4219 3102.5 4219 2962" style="fill:#FFFFFF;stroke:#333;stroke-miterlimit:10" floorId = "17602696"></polygon>
    <polygon points="4219 3105.5 4179 3105.5 4139 3105.5 4139 3251 4179 3251 4219 3251 4219 3105.5" style="fill:#FFFFFF;stroke:#333;stroke-miterlimit:10" floorId = "17602697"></polygon>
    <polygon points="4099 2669 4059 2669 4020.5 2669 4020.5 2814.5 4059 2814.5 4099 2814.5 4099 2669" style="fill:#FFFFFF;stroke:#333;stroke-miterlimit:10" data-spm-anchor-id="a2o7u.seatMake.0.i2.4d0f31ebTH9UMD" floorId = "17602698"></polygon>
    <polygon points="4099 2817.5 4059 2817.5 4020.5 2817.5 4020.5 2959 4059 2959 4099 2959 4099 2817.5" style="fill:#FFFFFF;stroke:#333;stroke-miterlimit:10" floorId = "17602699"></polygon>
    <polygon points="4339 2962 4299 2962 4259 2962 4259 3102.5 4299 3102.5 4339 3102.5 4339 2962" style="fill:#FFFFFF;stroke:#333;stroke-miterlimit:10" floorId = "17602692"></polygon>
    <polygon points="4339 3105.5 4299 3105.5 4259 3105.5 4259 3251 4299 3251 4339 3251 4339 3105.5" style="fill:#FFFFFF;stroke:#333;stroke-miterlimit:10" floorId = "17602693"></polygon>
    <polygon points="4219 2669 4179 2669 4139 2669 4139 2814.5 4179 2814.5 4219 2814.5 4219 2669" style="fill:#FFFFFF;stroke:#333;stroke-miterlimit:10" floorId = "17602694"></polygon>
    <polygon points="4219 2817.5 4179 2817.5 4139 2817.5 4139 2959 4179 2959 4219 2959 4219 2817.5" style="fill:#FFFFFF;stroke:#333;stroke-miterlimit:10" floorId = "17602695"></polygon>
    <polygon points="4459 2962 4419 2962 4379 2962 4379 3102.5 4419 3102.5 4459 3102.5 4459 2962" style="fill:#FFFFFF;stroke:#333;stroke-miterlimit:10" floorId = "17602688"></polygon>
    <polygon points="4459 3105.5 4419 3105.5 4379 3105.5 4379 3251 4419 3251 4459 3251 4459 3105.5" style="fill:#FFFFFF;stroke:#333;stroke-miterlimit:10" floorId = "17602689"></polygon>
    <polygon points="4339 2669 4299 2669 4259 2669 4259 2814.5 4299 2814.5 4339 2814.5 4339 2669" style="fill:#FFFFFF;stroke:#333;stroke-miterlimit:10" floorId = "17602690"></polygon>
    <polygon points="4339 2817.5 4299 2817.5 4259 2817.5 4259 2959 4299 2959 4339 2959 4339 2817.5" style="fill:#FFFFFF;stroke:#333;stroke-miterlimit:10" floorId = "17602691"></polygon>
    <path d="M4020.5,4030.5v208q19.48-16.25,38.5-33.14,20.32-18,40-36.64V4030.5h-78.5Z" style="fill:#FFFFFF;stroke:#333;stroke-miterlimit:10" floorId = "17602736"></path>
    <polygon points="4139 3886.5 4139 4027.5 4179 4027.5 4219 4027.5 4219 3886.5 4179 3886.5 4139 3886.5" style="fill:#FFFFFF;stroke:#333;stroke-miterlimit:10" floorId = "17602734"></polygon>
    <polygon points="4099 3886.5 4059 3886.5 4020.5 3886.5 4020.5 4027.5 4059 4027.5 4099 4027.5 4099 3886.5" style="fill:#FFFFFF;stroke:#333;stroke-miterlimit:10" floorId = "17602735"></polygon>
    <polygon points="4579 2962 4539 2962 4499 2962 4499 3102.5 4539 3102.5 4579 3102.5 4579 2962" style="fill:#FFFFFF;stroke:#333;stroke-miterlimit:10" floorId = "17602684"></polygon>
    <polygon points="4499 3105.5 4499 3251 4539 3251 4579 3251 4579 3105.5 4539 3105.5 4499 3105.5" style="fill:#FFFFFF;stroke:#333;stroke-miterlimit:10" floorId = "17602685"></polygon>
    <polygon points="4459 2669 4419 2669 4379 2669 4379 2814.5 4419 2814.5 4459 2814.5 4459 2669" style="fill:#FFFFFF;stroke:#333;stroke-miterlimit:10" floorId = "17602686"></polygon>
    <polygon points="4459 2817.5 4419 2817.5 4379 2817.5 4379 2959 4419 2959 4459 2959 4459 2817.5" style="fill:#FFFFFF;stroke:#333;stroke-miterlimit:10" floorId = "17602687"></polygon>
    <polygon points="4099 3569.5 4059 3569.5 4020.5 3569.5 4020.5 3698 4059 3698 4099 3698 4099 3569.5" style="fill:#FFFFFF;stroke:#333;stroke-miterlimit:10" floorId = "17602680"></polygon>
    <polygon points="4099 3701 4059 3701 4020.5 3701 4020.5 3830.5 4059 3830.5 4099 3830.5 4099 3701" style="fill:#FFFFFF;stroke:#333;stroke-miterlimit:10" floorId = "17602681"></polygon>
    <polygon points="4579 2669 4539 2669 4499 2669 4499 2814.5 4539 2814.5 4579 2814.5 4579 2669" style="fill:#FFFFFF;stroke:#333;stroke-miterlimit:10" floorId = "17602682"></polygon>
    <polygon points="4579 2817.5 4539 2817.5 4499 2817.5 4499 2959 4539 2959 4579 2959 4579 2817.5" style="fill:#FFFFFF;stroke:#333;stroke-miterlimit:10" floorId = "17602683"></polygon>
    <polygon points="4219 3569.5 4179 3569.5 4139 3569.5 4139 3698 4179 3698 4219 3698 4219 3569.5" style="fill:#FFFFFF;stroke:#333;stroke-miterlimit:10" floorId = "17602676"></polygon>
    <polygon points="4219 3701 4179 3701 4139 3701 4139 3830.5 4179 3830.5 4219 3830.5 4219 3701" style="fill:#FFFFFF;stroke:#333;stroke-miterlimit:10" floorId = "17602677"></polygon>
    <polygon points="4099 3307 4059 3307 4020.5 3307 4020.5 3435 4059 3435 4099 3435 4099 3307" style="fill:#FFFFFF;stroke:#333;stroke-miterlimit:10" floorId = "17602678"></polygon>
    <polygon points="4099 3438 4059 3438 4020.5 3438 4020.5 3566.5 4059 3566.5 4099 3566.5 4099 3438" style="fill:#FFFFFF;stroke:#333;stroke-miterlimit:10" floorId = "17602679"></polygon>
    <polygon points="4339 3569.5 4299 3569.5 4259 3569.5 4259 3698 4299 3698 4339 3698 4339 3569.5" style="fill:#FFFFFF;stroke:#333;stroke-miterlimit:10" floorId = "17602672"></polygon>
    <polygon points="4259 3701 4259 3830.5 4299 3830.5 4339 3830.5 4339 3701 4299 3701 4259 3701" style="fill:#FFFFFF;stroke:#333;stroke-miterlimit:10" floorId = "17602673"></polygon>
    <polygon points="4219 3307 4179 3307 4139 3307 4139 3435 4179 3435 4219 3435 4219 3307" style="fill:#FFFFFF;stroke:#333;stroke-miterlimit:10" floorId = "17602674"></polygon>
    <polygon points="4219 3438 4179 3438 4139 3438 4139 3566.5 4179 3566.5 4219 3566.5 4219 3438" style="fill:#FFFFFF;stroke:#333;stroke-miterlimit:10" floorId = "17602675"></polygon>
    <polygon points="4459 3307 4419 3307 4379 3307 4379 3435 4419 3435 4459 3435 4459 3307" style="fill:#FFFFFF;stroke:#333;stroke-miterlimit:10" floorId = "17602668"></polygon>
    <polygon points="4379 3438 4379 3566.5 4419 3566.5 4459 3566.5 4459 3438 4419 3438 4379 3438" style="fill:#FFFFFF;stroke:#333;stroke-miterlimit:10" floorId = "17602669"></polygon>
    <polygon points="4339 3307 4299 3307 4259 3307 4259 3435 4299 3435 4339 3435 4339 3307" style="fill:#FFFFFF;stroke:#333;stroke-miterlimit:10" floorId = "17602670"></polygon>
    <polygon points="4339 3438 4299 3438 4259 3438 4259 3566.5 4299 3566.5 4339 3566.5 4339 3438" style="fill:#FFFFFF;stroke:#333;stroke-miterlimit:10" floorId = "17602671"></polygon>
    <polygon points="1888.5 1892 1850 1892 1810 1892 1810 2033 1850 2033 1888.5 2033 1888.5 1892" style="fill:#FFFFFF;stroke:#333;stroke-miterlimit:10" floorId = "17602588"></polygon>
    <polygon points="1888.5 2484.5 1850 2484.5 1810 2484.5 1810 2613 1850 2613 1888.5 2613 1888.5 2484.5" style="fill:#FFFFFF;stroke:#333;stroke-miterlimit:10" floorId = "17602716"></polygon>
    <path d="M1888.5,1681.27q-19.48,16.25-38.5,33.14-20.32,18-40,36.64v138h78.5Z" style="fill:#FFFFFF;stroke:#333;stroke-miterlimit:10" floorId = "17602589"></path>
    <polygon points="1888.5 2353 1850 2353 1810 2353 1810 2481.5 1850 2481.5 1888.5 2481.5 1888.5 2353" style="fill:#FFFFFF;stroke:#333;stroke-miterlimit:10" floorId = "17602717"></polygon>
    <polygon points="1770 1892 1730 1892 1690 1892 1690 2033 1730 2033 1770 2033 1770 1892" style="fill:#FFFFFF;stroke:#333;stroke-miterlimit:10" floorId = "17602590"></polygon>
    <polygon points="1888.5 2221.5 1850 2221.5 1810 2221.5 1810 2350 1850 2350 1888.5 2350 1888.5 2221.5" style="fill:#FFFFFF;stroke:#333;stroke-miterlimit:10" floorId = "17602718"></polygon>
    <polygon points="1888.5 2089 1850 2089 1810 2089 1810 2218.5 1850 2218.5 1888.5 2218.5 1888.5 2089" style="fill:#FFFFFF;stroke:#333;stroke-miterlimit:10" floorId = "17602719"></polygon>
    <polygon points="1650 2484.5 1610 2484.5 1570 2484.5 1570 2613 1610 2613 1650 2613 1650 2484.5" style="fill:#FFFFFF;stroke:#333;stroke-miterlimit:10" floorId = "17602584"></polygon>
    <polygon points="1650 2353 1610 2353 1570 2353 1570 2481.5 1610 2481.5 1650 2481.5 1650 2353" style="fill:#FFFFFF;stroke:#333;stroke-miterlimit:10" floorId = "17602585"></polygon>
    <polygon points="1650 2221.5 1610 2221.5 1570 2221.5 1570 2350 1610 2350 1650 2350 1650 2221.5" style="fill:#FFFFFF;stroke:#333;stroke-miterlimit:10" floorId = "17602586"></polygon>
    <polygon points="1650 2089 1610 2089 1570 2089 1570 2218.5 1610 2218.5 1650 2218.5 1650 2089" style="fill:#FFFFFF;stroke:#333;stroke-miterlimit:10" floorId = "17602587"></polygon>
    <polygon points="1770 2484.5 1730 2484.5 1690 2484.5 1690 2613 1730 2613 1770 2613 1770 2484.5" style="fill:#FFFFFF;stroke:#333;stroke-miterlimit:10" floorId = "17602580"></polygon>
    <polygon points="1770 2353 1730 2353 1690 2353 1690 2481.5 1730 2481.5 1770 2481.5 1770 2353" style="fill:#FFFFFF;stroke:#333;stroke-miterlimit:10" floorId = "17602581"></polygon>
    <polygon points="1770 2221.5 1730 2221.5 1690 2221.5 1690 2350 1730 2350 1770 2350 1770 2221.5" style="fill:#FFFFFF;stroke:#333;stroke-miterlimit:10" floorId = "17602582"></polygon>
    <polygon points="1770 2089 1730 2089 1690 2089 1690 2218.5 1730 2218.5 1770 2218.5 1770 2089" style="fill:#FFFFFF;stroke:#333;stroke-miterlimit:10" floorId = "17602583"></polygon>
    <path d="M1810,4030.5v138.23q19.66,18.6,40,36.64,19,16.86,38.5,33.14v-208H1810Z" style="fill:#FFFFFF;stroke:#333;stroke-miterlimit:10" floorId = "17602577"></path>
    <polygon points="1888.5 3886.5 1850 3886.5 1810 3886.5 1810 4027.5 1850 4027.5 1888.5 4027.5 1888.5 3886.5" style="fill:#FFFFFF;stroke:#333;stroke-miterlimit:10" floorId = "17602578"></polygon>
    <polygon points="1690 3886.5 1690 4027.5 1730 4027.5 1770 4027.5 1770 3886.5 1730 3886.5 1690 3886.5" style="fill:#FFFFFF;stroke:#333;stroke-miterlimit:10" floorId = "17602579"></polygon>
    <polygon points="1530 2484.5 1490 2484.5 1450 2484.5 1450 2613 1490 2613 1530 2613 1530 2484.5" style="fill:#FFFFFF;stroke:#333;stroke-miterlimit:10" floorId = "17602610"></polygon>
    <polygon points="1530 2353 1490 2353 1450 2353 1450 2481.5 1490 2481.5 1530 2481.5 1530 2353" style="fill:#FFFFFF;stroke:#333;stroke-miterlimit:10" floorId = "17602611"></polygon>
    <polygon points="1450 3438 1450 3566.5 1490 3566.5 1530 3566.5 1530 3438 1490 3438 1450 3438" style="fill:#FFFFFF;stroke:#333;stroke-miterlimit:10" floorId = "17602732"></polygon>
    <polygon points="1530 3307 1490 3307 1450 3307 1450 3435 1490 3435 1530 3435 1530 3307" style="fill:#FFFFFF;stroke:#333;stroke-miterlimit:10" floorId = "17602733"></polygon>
    <polygon points="1570 3701 1570 3830.5 1610 3830.5 1650 3830.5 1650 3701 1610 3701 1570 3701" style="fill:#FFFFFF;stroke:#333;stroke-miterlimit:10" floorId = "17602728"></polygon>
    <polygon points="1650 3569.5 1610 3569.5 1570 3569.5 1570 3698 1610 3698 1650 3698 1650 3569.5" style="fill:#FFFFFF;stroke:#333;stroke-miterlimit:10" floorId = "17602729"></polygon>
    <polygon points="1650 3438 1610 3438 1570 3438 1570 3566.5 1610 3566.5 1650 3566.5 1650 3438" style="fill:#FFFFFF;stroke:#333;stroke-miterlimit:10" floorId = "17602730"></polygon>
    <polygon points="1650 3307 1610 3307 1570 3307 1570 3435 1610 3435 1650 3435 1650 3307" style="fill:#FFFFFF;stroke:#333;stroke-miterlimit:10" floorId = "17602731"></polygon>
    <polygon points="1770 3701 1730 3701 1690 3701 1690 3830.5 1730 3830.5 1770 3830.5 1770 3701" style="fill:#FFFFFF;stroke:#333;stroke-miterlimit:10" floorId = "17602724"></polygon>
    <polygon points="1770 3569.5 1730 3569.5 1690 3569.5 1690 3698 1730 3698 1770 3698 1770 3569.5" style="fill:#FFFFFF;stroke:#333;stroke-miterlimit:10" floorId = "17602725"></polygon>
    <polygon points="1770 3438 1730 3438 1690 3438 1690 3566.5 1730 3566.5 1770 3566.5 1770 3438" style="fill:#FFFFFF;stroke:#333;stroke-miterlimit:10" floorId = "17602726"></polygon>
    <polygon points="1770 3307 1730 3307 1690 3307 1690 3435 1730 3435 1770 3435 1770 3307" style="fill:#FFFFFF;stroke:#333;stroke-miterlimit:10" floorId = "17602727"></polygon>
    <polygon points="1888.5 3701 1850 3701 1810 3701 1810 3830.5 1850 3830.5 1888.5 3830.5 1888.5 3701" style="fill:#FFFFFF;stroke:#333;stroke-miterlimit:10" floorId = "17602720"></polygon>
    <polygon points="1888.5 3569.5 1850 3569.5 1810 3569.5 1810 3698 1850 3698 1888.5 3698 1888.5 3569.5" style="fill:#FFFFFF;stroke:#333;stroke-miterlimit:10" floorId = "17602721"></polygon>
    <polygon points="1888.5 3438 1850 3438 1810 3438 1810 3566.5 1850 3566.5 1888.5 3566.5 1888.5 3438" style="fill:#FFFFFF;stroke:#333;stroke-miterlimit:10" floorId = "17602722"></polygon>
    <polygon points="1888.5 3307 1850 3307 1810 3307 1810 3435 1850 3435 1888.5 3435 1888.5 3307" style="fill:#FFFFFF;stroke:#333;stroke-miterlimit:10" floorId = "17602723"></polygon>
    <polygon points="1770 3105.5 1730 3105.5 1690 3105.5 1690 3251 1730 3251 1770 3251 1770 3105.5" style="fill:#FFFFFF;stroke:#333;stroke-miterlimit:10" floorId = "17602652"></polygon>
    <polygon points="1770 2962 1730 2962 1690 2962 1690 3102.5 1730 3102.5 1770 3102.5 1770 2962" style="fill:#FFFFFF;stroke:#333;stroke-miterlimit:10" floorId = "17602653"></polygon>
    <polygon points="1770 2817.5 1730 2817.5 1690 2817.5 1690 2959 1730 2959 1770 2959 1770 2817.5" style="fill:#FFFFFF;stroke:#333;stroke-miterlimit:10" floorId = "17602654"></polygon>
    <polygon points="1770 2669 1730 2669 1690 2669 1690 2814.5 1730 2814.5 1770 2814.5 1770 2669" style="fill:#FFFFFF;stroke:#333;stroke-miterlimit:10" floorId = "17602655"></polygon>
    <polygon points="1888.5 3105.5 1850 3105.5 1810 3105.5 1810 3251 1850 3251 1888.5 3251 1888.5 3105.5" style="fill:#FFFFFF;stroke:#333;stroke-miterlimit:10" floorId = "17602648"></polygon>
    <polygon points="1888.5 2962 1850 2962 1810 2962 1810 3102.5 1850 3102.5 1888.5 3102.5 1888.5 2962" style="fill:#FFFFFF;stroke:#333;stroke-miterlimit:10" floorId = "17602649"></polygon>
    <polygon points="1888.5 2817.5 1850 2817.5 1810 2817.5 1810 2959 1850 2959 1888.5 2959 1888.5 2817.5" style="fill:#FFFFFF;stroke:#333;stroke-miterlimit:10" floorId = "17602650"></polygon>
    <polygon points="1888.5 2669 1850 2669 1810 2669 1810 2814.5 1850 2814.5 1888.5 2814.5 1888.5 2669" style="fill:#FFFFFF;stroke:#333;stroke-miterlimit:10" floorId = "17602651"></polygon>
    <polygon points="1330 3105.5 1330 3251 1370 3251 1410 3251 1410 3105.5 1370 3105.5 1330 3105.5" style="fill:#FFFFFF;stroke:#333;stroke-miterlimit:10" floorId = "17602664"></polygon>
    <polygon points="1410 2962 1370 2962 1330 2962 1330 3102.5 1370 3102.5 1410 3102.5 1410 2962" style="fill:#FFFFFF;stroke:#333;stroke-miterlimit:10" floorId = "17602665"></polygon>
    <polygon points="1410 2817.5 1370 2817.5 1330 2817.5 1330 2959 1370 2959 1410 2959 1410 2817.5" style="fill:#FFFFFF;stroke:#333;stroke-miterlimit:10" floorId = "17602666"></polygon>
    <polygon points="1410 2669 1370 2669 1330 2669 1330 2814.5 1370 2814.5 1410 2814.5 1410 2669" style="fill:#FFFFFF;stroke:#333;stroke-miterlimit:10" floorId = "17602667"></polygon>
    <polygon points="1530 3105.5 1490 3105.5 1450 3105.5 1450 3251 1490 3251 1530 3251 1530 3105.5" style="fill:#FFFFFF;stroke:#333;stroke-miterlimit:10" floorId = "17602660"></polygon>
    <polygon points="1530 2962 1490 2962 1450 2962 1450 3102.5 1490 3102.5 1530 3102.5 1530 2962" style="fill:#FFFFFF;stroke:#333;stroke-miterlimit:10" floorId = "17602661"></polygon>
    <polygon points="1530 2817.5 1490 2817.5 1450 2817.5 1450 2959 1490 2959 1530 2959 1530 2817.5" style="fill:#FFFFFF;stroke:#333;stroke-miterlimit:10" floorId = "17602662"></polygon>
    <polygon points="1530 2669 1490 2669 1450 2669 1450 2814.5 1490 2814.5 1530 2814.5 1530 2669" style="fill:#FFFFFF;stroke:#333;stroke-miterlimit:10" floorId = "17602663"></polygon>
    <polygon points="1650 3105.5 1610 3105.5 1570 3105.5 1570 3251 1610 3251 1650 3251 1650 3105.5" style="fill:#FFFFFF;stroke:#333;stroke-miterlimit:10" floorId = "17602656"></polygon>
    <polygon points="1650 2962 1610 2962 1570 2962 1570 3102.5 1610 3102.5 1650 3102.5 1650 2962" style="fill:#FFFFFF;stroke:#333;stroke-miterlimit:10" floorId = "17602657"></polygon>
    <polygon points="1650 2817.5 1610 2817.5 1570 2817.5 1570 2959 1610 2959 1650 2959 1650 2817.5" style="fill:#FFFFFF;stroke:#333;stroke-miterlimit:10" floorId = "17602658"></polygon>
    <polygon points="1650 2669 1610 2669 1570 2669 1570 2814.5 1610 2814.5 1650 2814.5 1650 2669" style="fill:#FFFFFF;stroke:#333;stroke-miterlimit:10" floorId = "17602659"></polygon>
    <path d="M3401.2,5344.56l-7.81-39.23-7.81-39.23-7.81-39.23-7.81-39.23-7.81-39.23-7.81-39.23a2203.71,2203.71,0,0,1-797.89.49l-7.8,39.24-7.8,39.24-7.8,39.24-7.8,39.24-7.8,39.23-7.8,39.23a2443.48,2443.48,0,0,0,891.54-.5Z" style="fill:#FFFFFF;stroke:#333;stroke-miterlimit:10" floorId = "17602591"></path>
    <path d="M5328.12,3460.57l-39.23-7.8-39.23-7.8-39.23-7.8-39.23-7.8-39.23-7.8-39.24-7.8a2175.77,2175.77,0,0,1-305.24,736.83l33.26,22.22L4854,4195l33.26,22.22,33.26,22.22,33.26,22.22,33.26,22.22a2415.43,2415.43,0,0,0,341.07-823.35Z" style="fill:#FFFFFF;stroke:#333;stroke-miterlimit:10" floorId = "17602604"></path>
    <path d="M4889.4,4286l-33.26-22.22-33.26-22.22-33.26-22.22-33.26-22.22a2195,2195,0,0,1-563.76,564.15l22.23,33.26,22.23,33.26,22.23,33.26,22.23,33.26,22.23,33.26,22.23,33.26a2435.19,2435.19,0,0,0,630-630.38l-33.26-22.22Z" style="fill:#FFFFFF;stroke:#333;stroke-miterlimit:10" floorId = "17602605"></path>
    <path d="M4279.42,4992l-22.23-33.26L4235,4925.49l-22.23-33.26L4190.51,4859l-22.23-33.26-22.23-33.26a2175.75,2175.75,0,0,1-736.78,305.79l7.81,39.23,7.81,39.24,7.81,39.24,7.81,39.23,7.81,39.23,7.81,39.23A2415.74,2415.74,0,0,0,4279.42,4992Z" style="fill:#FFFFFF;stroke:#333;stroke-miterlimit:10" floorId = "17602606"></path>
    <path d="M4146.05,1127.33l22.22-33.26,22.22-33.26,22.22-33.26,22.22-33.26L4257.16,961l22.22-33.26a2415.81,2415.81,0,0,0-823.55-341.69L3448,625.3l-7.8,39.23-7.8,39.24-7.8,39.24-7.8,39.24-7.8,39.24a2175.78,2175.78,0,0,1,737,305.85Z" style="fill:#FFFFFF;stroke:#333;stroke-miterlimit:10" floorId = "17602600"></path>
    <path d="M4325.91,958.91l-22.22,33.26-22.22,33.26-22.22,33.26L4237,1092l-22.22,33.26-22.22,33.26a2194.95,2194.95,0,0,1,563.87,564.31l33.26-22.23,33.26-22.23,33.26-22.23,33.26-22.23,33.26-22.23,33.26-22.23a2435.07,2435.07,0,0,0-630.1-630.53Z" style="fill:#FFFFFF;stroke:#333;stroke-miterlimit:10" floorId = "17602601"></path>
    <path d="M4920.62,1680.45l-33.26,22.23-33.26,22.23-33.26,22.23-33.26,22.23a2175.87,2175.87,0,0,1,305.2,737l39.23-7.81,39.23-7.81,39.23-7.81,39.23-7.81,39.23-7.81,39.23-7.81a2415.52,2415.52,0,0,0-341-823.47l-33.26,22.23Z" style="fill:#FFFFFF;stroke:#333;stroke-miterlimit:10" floorId = "17602602"></path>
    <path d="M5142.83,3366.63l39.23,7.8,39.23,7.8,39.23,7.8,39.23,7.8,39.23,7.8a2443.47,2443.47,0,0,0,.05-891.23l-39.23,7.81-39.23,7.81-39.23,7.81-39.23,7.81-39.23,7.81-39.24,7.81a2203.85,2203.85,0,0,1-.06,797.58Z" style="fill:#FFFFFF;stroke:#333;stroke-miterlimit:10" floorId = "17602603"></path>
    <path d="M580,2459.46l39.23,7.8,39.23,7.8,39.23,7.8,39.23,7.8,39.23,7.8,39.24,7.8a2175.92,2175.92,0,0,1,305.68-737.66l-33.26-22.22-33.26-22.22-33.26-22.22L988,1679.72l-33.26-22.22-33.26-22.22A2415.73,2415.73,0,0,0,580,2459.46Z" style="fill:#FFFFFF;stroke:#333;stroke-miterlimit:10" floorId = "17602596"></path>
    <path d="M1019.15,1633.18l33.26,22.22,33.26,22.22,33.26,22.22,33.26,22.22a2195,2195,0,0,1,564.64-564.45l-22.23-33.26-22.23-33.26-22.23-33.26-22.23-33.26-22.23-33.26-22.23-33.26a2435.18,2435.18,0,0,0-630.86,630.68L985.89,1611Z" style="fill:#FFFFFF;stroke:#333;stroke-miterlimit:10" floorId = "17602597"></path>
    <path d="M1652.26,960.18l22.23,33.26,22.23,33.26,22.23,33.26,22.23,33.26,22.23,33.26A2176,2176,0,0,1,2501,821.08l-7.81-39.23-7.81-39.23-7.81-39.23-7.81-39.23L2462,624.91l-7.81-39.23A2415.7,2415.7,0,0,0,1630,926.92Z" style="fill:#FFFFFF;stroke:#333;stroke-miterlimit:10" floorId = "17602598"></path>
    <path d="M2524.7,653.29l7.81,39.23,7.81,39.23,7.81,39.24,7.81,39.24a2203.89,2203.89,0,0,1,798.17.34l7.8-39.23,7.8-39.23,7.8-39.23,7.8-39.23,7.8-39.23,7.8-39.23a2443.58,2443.58,0,0,0-891.82-.34l7.81,39.23Z" style="fill:#FFFFFF;stroke:#333;stroke-miterlimit:10" floorId = "17602599"></path>
    <path d="M2478.12,5216.51l7.8-39.23,7.8-39.23,7.8-39.23a2175.8,2175.8,0,0,1-737.45-305.07L1741.84,4827l-22.22,33.26-22.22,33.26-22.22,33.26L1653,4960.06l-22.22,33.26a2415.39,2415.39,0,0,0,824,340.89l7.8-39.23,7.8-39.23Z" style="fill:#FFFFFF;stroke:#333;stroke-miterlimit:10" floorId = "17602592"></path>
    <path d="M1584.18,4962.21l22.22-33.26,22.22-33.26,22.22-33.26,22.22-33.26,22.22-33.26,22.22-33.26a2195,2195,0,0,1-564.73-564.08l-33.26,22.23L1086.26,4243,1053,4265.23l-33.26,22.23-33.26,22.23-33.26,22.23a2435.19,2435.19,0,0,0,631,630.3Z" style="fill:#FFFFFF;stroke:#333;stroke-miterlimit:10" floorId = "17602593"></path>
    <path d="M988.57,4240.93l33.26-22.23,33.26-22.23,33.26-22.23,33.26-22.23a2175.82,2175.82,0,0,1-306-737.41l-39.23,7.81-39.24,7.81L697.9,3438l-39.23,7.81-39.23,7.81-39.23,7.81a2415.86,2415.86,0,0,0,341.85,823.93l33.26-22.23Z" style="fill:#FFFFFF;stroke:#333;stroke-miterlimit:10" floorId = "17602594"></path>
    <path d="M765.27,2553.39l-39.24-7.8-39.23-7.8-39.23-7.8-39.23-7.8-39.23-7.8a2443.57,2443.57,0,0,0,.21,892.13l39.23-7.81,39.23-7.81L687,3383.1l39.23-7.81,39.23-7.81,39.23-7.81a2203.93,2203.93,0,0,1-.2-798.48Z" style="fill:#FFFFFF;stroke:#333;stroke-miterlimit:10" floorId = "17602595"></path>
    <path d="M5060,2959.89a2122.26,2122.26,0,0,0-34.83-383l-39.24,7.81-39.24,7.81-39.24,7.81-39.24,7.81-39.24,7.81-39.24,7.81-39.24,7.81-39.24,7.81-39.24,7.81A1763.81,1763.81,0,0,1,4672,3273l39.24,7.8,39.24,7.8,39.24,7.8,39.24,7.8,39.24,7.8,39.24,7.8,39.24,7.8,39.24,7.8,39.24,7.8A2122.21,2122.21,0,0,0,5060,2959.89Z" style="fill:#FFFFFF;stroke:#333;stroke-miterlimit:10" floorId = "17602644"></path>
    <path d="M4894.36,3779.72a2098.46,2098.46,0,0,0,119.89-381.56l-39.24-7.8-39.24-7.8-39.24-7.8-39.24-7.8-39.24-7.8-39.24-7.8-39.24-7.8-39.24-7.8-39.24-7.8a1735.55,1735.55,0,0,1-239.55,578.19l33.27,22.22,33.27,22.22,33.27,22.22,33.27,22.22,33.26,22.22,33.27,22.22,33.27,22.22,33.26,22.22,33.26,22.22A2107.26,2107.26,0,0,0,4894.36,3779.72Z" style="fill:#FFFFFF;stroke:#333;stroke-miterlimit:10" floorId = "17602645"></path>
    <path d="M4125.9,4661.51l22.23,33.26a2115,2115,0,0,0,541.69-542.08l-33.26-22.22-33.26-22.22L4590,4086l-33.26-22.22-33.26-22.22-33.26-22.22L4457,3997.14l-33.27-22.22-33.26-22.22a1755.27,1755.27,0,0,1-442.36,442.73l22.23,33.27,22.23,33.26,22.23,33.26,22.23,33.26,22.23,33.26,22.23,33.26,22.23,33.26Z" style="fill:#FFFFFF;stroke:#333;stroke-miterlimit:10" floorId = "17602646"></path>
    <path d="M4101.6,4725.94l-22.23-33.26-22.23-33.26-22.23-33.26-22.23-33.26-22.23-33.26-22.23-33.26L3946,4493.12l-22.23-33.26-22.23-33.26a1735.62,1735.62,0,0,1-578.16,240.07l7.81,39.23,7.81,39.23,7.81,39.23,7.81,39.23,7.81,39.23,7.81,39.24,7.81,39.23,7.81,39.23,7.81,39.23a2095.71,2095.71,0,0,0,707.94-293.84Z" style="fill:#FFFFFF;stroke:#333;stroke-miterlimit:10" floorId = "17602647"></path>
    <path d="M2571.54,888.7l7.81,39.24,7.81,39.24,7.81,39.24,7.81,39.24,7.81,39.24,7.81,39.24,7.81,39.24,7.81,39.24,7.81,39.24a1763.79,1763.79,0,0,1,626.46.35l7.8-39.24,7.8-39.24,7.8-39.24,7.8-39.24,7.8-39.24,7.8-39.24,7.8-39.24,7.8-39.24,7.8-39.24a2123.87,2123.87,0,0,0-766.95-.34Z" style="fill:#FFFFFF;stroke:#333;stroke-miterlimit:10" floorId = "17602640"></path>
    <path d="M2517.12,5020.34l7.8-39.24,7.8-39.24,7.8-39.24,7.8-39.24,7.8-39.24,7.8-39.24,7.8-39.24,7.8-39.24,7.8-39.24a1735.5,1735.5,0,0,1-578.82-239.39l-22.22,33.27-22.22,33.27-22.22,33.27-22.22,33.27-22.22,33.27-22.22,33.27L1853,4660.69,1830.73,4694l-22.22,33.27a2095.86,2095.86,0,0,0,708.61,293.13Z" style="fill:#FFFFFF;stroke:#333;stroke-miterlimit:10" floorId = "17602608"></path>
    <path d="M3393.42,899.95l-7.8,39.24-7.8,39.24-7.8,39.24-7.8,39.24-7.8,39.24-7.8,39.24-7.8,39.24-7.8,39.24-7.8,39.24a1735.64,1735.64,0,0,1,578.4,240.15l22.22-33.26,22.22-33.26,22.22-33.26,22.22-33.26,22.22-33.26,22.22-33.26,22.22-33.26,22.22-33.26,22.22-33.26a2095.79,2095.79,0,0,0-708.19-293.9Z" style="fill:#FFFFFF;stroke:#333;stroke-miterlimit:10" floorId = "17602641"></path>
    <path d="M1762,4696.1l22.22-33.26,22.22-33.26,22.22-33.26,22.22-33.26,22.22-33.26,22.22-33.26,22.23-33.27,22.22-33.26,22.22-33.26A1755.1,1755.1,0,0,1,1518.64,3954l-33.26,22.23-33.26,22.23-33.26,22.23-33.26,22.23-33.26,22.23-33.26,22.23-33.26,22.23-33.26,22.23-33.26,22.23a2115,2115,0,0,0,542.65,542Z" style="fill:#FFFFFF;stroke:#333;stroke-miterlimit:10" floorId = "17602609"></path>
    <path d="M4148.14,1225l-22.22,33.26-22.22,33.26-22.22,33.26-22.22,33.26L4037,1391.34l-22.22,33.26-22.22,33.26-22.22,33.26-22.23,33.27a1755.23,1755.23,0,0,1,442.46,442.92l33.26-22.23,33.26-22.23,33.26-22.23,33.26-22.23,33.26-22.23,33.26-22.23,33.26-22.23,33.26-22.23,33.26-22.23A2115,2115,0,0,0,4148.14,1225Z" style="fill:#FFFFFF;stroke:#333;stroke-miterlimit:10" floorId = "17602642"></path>
    <path d="M4700.44,2584.4l39.23-7.81,39.23-7.81,39.23-7.81,39.23-7.81,39.23-7.81,39.23-7.81,39.23-7.81,39.24-7.81a2095.86,2095.86,0,0,0-293.24-708.12L4687.81,1836l-33.26,22.23-33.26,22.23L4588,1902.72,4554.77,1925l-33.26,22.23-33.26,22.23L4455,1991.64l-33.26,22.23A1735.52,1735.52,0,0,1,4661.2,2592.2Z" style="fill:#FFFFFF;stroke:#333;stroke-miterlimit:10" floorId = "17602643"></path>
    <path d="M848.15,2959.89a2122.4,2122.4,0,0,0,35,384.17l39.24-7.81,39.24-7.81,39.24-7.81,39.24-7.81,39.24-7.81,39.24-7.81,39.24-7.81,39.24-7.81,39.24-7.81a1763.76,1763.76,0,0,1-.18-626.78l-39.24-7.8-39.24-7.8-39.24-7.8-39.24-7.8-39.24-7.8-39.24-7.8-39.24-7.8-39.24-7.8L883,2576.8A2122.37,2122.37,0,0,0,848.15,2959.89Z" style="fill:#FFFFFF;stroke:#333;stroke-miterlimit:10" floorId = "17602636"></path>
    <path d="M1013.8,2140.05a2098.28,2098.28,0,0,0-120,381.81l39.24,7.8,39.24,7.8,39.24,7.8,39.24,7.8,39.24,7.8,39.24,7.8,39.24,7.8,39.24,7.8,39.24,7.8a1735.59,1735.59,0,0,1,240-579l-33.26-22.22-33.27-22.22-33.26-22.22-33.27-22.22-33.26-22.22-33.26-22.22-33.26-22.22-33.26-22.22L1187.58,1813A2106.79,2106.79,0,0,0,1013.8,2140.05Z" style="fill:#FFFFFF;stroke:#333;stroke-miterlimit:10" floorId = "17602637"></path>
    <path d="M1783.53,1257.39l-22.23-33.26a2115,2115,0,0,0-542.57,542.38l33.26,22.22,33.26,22.22,33.26,22.22,33.26,22.22,33.26,22.22,33.26,22.22,33.26,22.22,33.27,22.22,33.26,22.22a1755.39,1755.39,0,0,1,443.24-443l-22.23-33.26-22.23-33.26-22.23-33.26-22.23-33.26-22.23-33.26L1828,1323.91l-22.23-33.26Z" style="fill:#FFFFFF;stroke:#333;stroke-miterlimit:10" floorId = "17602638"></path>
    <path d="M2563.45,1135l-7.81-39.23-7.81-39.23-7.81-39.23L2532.22,978l-7.81-39.23-7.81-39.23A2096,2096,0,0,0,1807.85,1193l22.23,33.26,22.23,33.26,22.23,33.26,22.23,33.26,22.23,33.26,22.23,33.26,22.23,33.26,22.23,33.26,22.23,33.26a1735.54,1735.54,0,0,1,579-239.68l-7.81-39.23-7.81-39.23Z" style="fill:#FFFFFF;stroke:#333;stroke-miterlimit:10" floorId = "17602639"></path>
    <path d="M3307.5,4873.75l-7.81-39.24-7.81-39.24-7.81-39.24-7.81-39.24-7.81-39.24a1763.82,1763.82,0,0,1-626.19.47l-7.8,39.24-7.8,39.24-7.8,39.24-7.8,39.24-7.8,39.24-7.8,39.24-7.8,39.24-7.8,39.24-7.8,39.24a2123.74,2123.74,0,0,0,766.67-.48l-7.81-39.24-7.81-39.24-7.81-39.24Z" style="fill:#FFFFFF;stroke:#333;stroke-miterlimit:10" floorId = "17602607"></path>
    <path d="M1188.12,4107.56l33.26-22.23,33.26-22.23,33.26-22.23,33.26-22.23,33.26-22.23,33.26-22.23,33.26-22.23,33.26-22.23,33.26-22.23a1735.68,1735.68,0,0,1-240.27-578.8l-39.23,7.81-39.23,7.81-39.23,7.81-39.23,7.81-39.24,7.81-39.23,7.81-39.23,7.81-39.23,7.81L894.08,3399a2095.82,2095.82,0,0,0,294,708.58Z" style="fill:#FFFFFF;stroke:#333;stroke-miterlimit:10" floorId = "17602635"></path>
    <path d="M643.75,1797.46,679.68,1815l35.93,17.59a2511.27,2511.27,0,0,1,135.49-235.9l-33.33-22.13-33.33-22.13-33.32-22.13-33.32-22.13a2671.79,2671.79,0,0,0-145.9,254.05l35.93,17.59Z" style="fill:#FFFFFF;stroke:#333;stroke-miterlimit:10" floorId = "17602620"></path>
    <path d="M1023.75,1239.19l30.15,26.29,30.15,26.29q47.58-53.33,98.06-103.84,45.65-45.65,93.72-89l-26.46-30-26.46-30-26.46-30-26.46-30q-51.77,46.63-101,95.85-54.32,54.32-105.54,111.83l30.15,26.29Z" style="fill:#FFFFFF;stroke:#333;stroke-miterlimit:10" floorId = "17602621"></path>
    <path d="M1264.91,1001.9l26.46,30,26.46,30A2518.91,2518.91,0,0,1,1533.1,895.61l-22.32-33.19-22.32-33.2L1466.14,796l-22.32-33.2A2679.28,2679.28,0,0,0,1212,941.9l26.46,30Z" style="fill:#FFFFFF;stroke:#333;stroke-miterlimit:10" floorId = "17602622"></path>
    <path d="M1534.91,798l22.32,33.2,22.32,33.2a2510.63,2510.63,0,0,1,235.12-136.75l-17.8-35.82-17.8-35.82-17.8-35.82-17.8-35.82a2671.1,2671.1,0,0,0-253.22,147.26l22.32,33.2Z" style="fill:#FFFFFF;stroke:#333;stroke-miterlimit:10" floorId = "17602623"></path>
    <path d="M554.68,3925.41l36.88-15.5,36.88-15.51a2500.33,2500.33,0,0,1-125.26-410.6L464,3491.71l-39.21,7.92-39.21,7.92-39.21,7.92a2660.88,2660.88,0,0,0,134.6,441l36.88-15.5Z" style="fill:#FFFFFF;stroke:#333;stroke-miterlimit:10" floorId = "17602616"></path>
    <path d="M413.69,3444.73l39.21-7.92,39.21-7.92a2522.81,2522.81,0,0,1-44-469q0-64.31,3.28-128.56l-39.92-2.5-39.92-2.5-39.92-2.5-39.92-2.5q-3.58,69.21-3.59,138.56a2683.2,2683.2,0,0,0,47.12,500.67l39.21-7.92Z" style="fill:#FFFFFF;stroke:#333;stroke-miterlimit:10" floorId = "17602617"></path>
    <path d="M375.06,2770.44l39.92,2.5,39.92,2.5a2493.26,2493.26,0,0,1,114.74-587.78l-37.92-12.75-37.92-12.75-37.91-12.75L418,2136.66a2653.05,2653.05,0,0,0-122.77,628.78l39.92,2.5Z" style="fill:#FFFFFF;stroke:#333;stroke-miterlimit:10" floorId = "17602618"></path>
    <path d="M511.66,2109.08l37.92,12.75,37.92,12.75q26.54-76.14,57.91-150.35Q667,1933.13,691,1882.92L655,1865.33l-35.93-17.59-35.93-17.59-35.93-17.59Q521.39,1866.72,498,1921.9q-33.71,79.7-62.21,161.68l37.92,12.75Z" style="fill:#FFFFFF;stroke:#333;stroke-miterlimit:10" floorId = "17602619"></path>
    <path d="M3439.46,5500.17l-7.92-39.21-7.92-39.21a2523.29,2523.29,0,0,1-922.84,3l-7.69,39.26-7.69,39.26-7.69,39.26L2470,5581.8a2683.48,2683.48,0,0,0,985.28-3.2l-7.92-39.21Z" style="fill:#FFFFFF;stroke:#333;stroke-miterlimit:10" floorId = "17602612"></path>
    <path d="M1758.84,5162.74l-19.72,34.81-19.72,34.81-19.72,34.81L1680,5302q115.31,62.81,236.15,114A2659.06,2659.06,0,0,0,2415,5571.09l7.69-39.26,7.69-39.26,7.69-39.26,7.69-39.26a2498.8,2498.8,0,0,1-467.37-145.49Q1866.36,5221.17,1758.84,5162.74Z" style="fill:#FFFFFF;stroke:#333;stroke-miterlimit:10" floorId = "17602613"></path>
    <path d="M1709.93,5135.46q-80.56-46.13-157.48-98.07a2520.38,2520.38,0,0,1-370.34-305.54q-45.2-45.2-88.12-92.76l-30,26.46L1034,4692l-30,26.46-30,26.46q46.22,51.27,95,100a2680.89,2680.89,0,0,0,393.91,325q82,55.41,168.19,104.7l19.72-34.8,19.72-34.8,19.72-34.8Z" style="fill:#FFFFFF;stroke:#333;stroke-miterlimit:10" floorId = "17602614"></path>
    <path d="M613,3961.62l-36.87,15.5-36.87,15.5-36.87,15.5a2668.93,2668.93,0,0,0,224.05,416.66l33.19-22.32,33.2-22.32,33.2-22.32,33.2-22.32a2508.29,2508.29,0,0,1-209.34-389.39Z" style="fill:#FFFFFF;stroke:#333;stroke-miterlimit:10" floorId = "17602615"></path>
    <path d="M5330.15,3981.44l-37.61-13.81-37.61-13.81a2509.41,2509.41,0,0,1-197.42,368.51l33.33,22.13,33.33,22.13,33.33,22.13,33.33,22.13A2669.78,2669.78,0,0,0,5405.36,4009l-37.6-13.8Z" style="fill:#FFFFFF;stroke:#333;stroke-miterlimit:10" floorId = "17602632"></path>
    <path d="M4740.76,4829.31l-27.2-29.33-27.2-29.33a2520.62,2520.62,0,0,1-330.64,266.74q-59.87,40.45-122.11,77.43l18.65,35.44,18.65,35.44,18.65,35.44,18.65,35.44q69.87-41.24,137.07-86.63a2681,2681,0,0,0,349.88-282l-27.2-29.33Z" style="fill:#FFFFFF;stroke:#333;stroke-miterlimit:10" floorId = "17602633"></path>
    <path d="M4222.38,5213.73l-18.64-35.41-18.64-35.41a2492.72,2492.72,0,0,1-706.59,267.77l7.92,39.21,7.92,39.21,7.92,39.21,7.92,39.21a2652.4,2652.4,0,0,0,749.46-283L4241,5249.14Z" style="fill:#FFFFFF;stroke:#333;stroke-miterlimit:10" floorId = "17602634"></path>
    <path d="M5282.82,1834.79l-35.82,17.8-35.82,17.8q27.24,56.33,51.58,113.85,28.6,67.62,53.21,137l37.84-13,37.84-13,37.84-13,37.84-13q-26.42-74.61-57.21-147.45-26.21-62-55.64-122.71l-35.82,17.8Z" style="fill:#FFFFFF;stroke:#333;stroke-miterlimit:10" floorId = "17602628"></path>
    <path d="M5409.79,2148.27l-37.84,13-37.84,13a2492.9,2492.9,0,0,1,118,586.74l39.91-2.74,39.91-2.74,39.91-2.74,39.91-2.74a2653.06,2653.06,0,0,0-126.29-627.67l-37.84,13Z" style="fill:#FFFFFF;stroke:#333;stroke-miterlimit:10" floorId = "17602629"></path>
    <path d="M5615.57,2805.87l-39.91,2.74-39.91,2.74-39.91,2.74-39.91,2.74q4.06,71.45,4.06,143.07A2523.09,2523.09,0,0,1,5418.8,3414l39.26,7.69,39.26,7.69,39.26,7.69,39.26,7.69A2683.38,2683.38,0,0,0,5620,2959.89Q5620,2882.84,5615.57,2805.87Z" style="fill:#FFFFFF;stroke:#333;stroke-miterlimit:10" floorId = "17602630"></path>
    <path d="M5486.6,3484.36l-39.26-7.69-39.26-7.69a2499.4,2499.4,0,0,1-131.49,433.15l37.57,13.79,37.57,13.79,37.57,13.79,37.57,13.79a2659.75,2659.75,0,0,0,138.23-457.55l-39.26-7.69Z" style="fill:#FFFFFF;stroke:#333;stroke-miterlimit:10" floorId = "17602631"></path>
    <path d="M4339.7,823.82l22.13-33.32,22.13-33.32,22.13-33.32A2671.72,2671.72,0,0,0,4152.16,578l-17.59,35.93L4117,649.81l-17.59,35.93-17.59,35.93a2511.29,2511.29,0,0,1,235.77,135.48Z" style="fill:#FFFFFF;stroke:#333;stroke-miterlimit:10" floorId = "17602624"></path>
    <path d="M4364.19,888.17a2517.36,2517.36,0,0,1,216,165.06l26.29-30.15,26.29-30.15,26.29-30.15,26.29-30.15a2677.5,2677.5,0,0,0-232.66-177.75l-22.13,33.33-22.13,33.33-22.13,33.33Z" style="fill:#FFFFFF;stroke:#333;stroke-miterlimit:10" floorId = "17602625"></path>
    <path d="M4648.68,1059.89,4622.4,1090q53.23,47.5,103.64,97.89,45.69,45.69,89.05,93.79l30-26.46,30-26.46,30-26.46,30-26.46q-46.66-51.81-95.91-101.08-54.22-54.22-111.63-105.36l-26.29,30.15L4675,1029.74Z" style="fill:#FFFFFF;stroke:#333;stroke-miterlimit:10" floorId = "17602626"></path>
    <path d="M5222.07,1802.44l35.82-17.8,35.82-17.8,35.82-17.8A2670.94,2670.94,0,0,0,5182.35,1496l-33.2,22.32-33.2,22.32-33.2,22.32-33.2,22.32a2510.64,2510.64,0,0,1,136.68,234.95Z" style="fill:#FFFFFF;stroke:#333;stroke-miterlimit:10" floorId = "17602627"></path>
    <text text-anchor="middle" x="4299" y="2417.25" style="font-size:15px; ">包厢E2-33</text>
    <text text-anchor="middle" x="4299" y="2548.75" style="font-size:15px; " id="2044025">包厢E2-34</text>
    <text text-anchor="middle" x="4419" y="2417.25" style="font-size:15px; ">包厢E2-43</text>
    <text text-anchor="middle" x="4419" y="2548.75" style="font-size:15px; ">包厢E2-44</text>
    <text text-anchor="middle" x="4179" y="2417.25" style="font-size:15px; ">包厢E2-23</text>
    <text text-anchor="middle" x="4179" y="2548.75" style="font-size:15px; " id="2044017">包厢E2-24</text>
    <text text-anchor="middle" x="4299" y="2153.75" style="font-size:15px; ">包厢E2-31</text>
    <text text-anchor="middle" x="4299" y="2285.75" style="font-size:15px; ">包厢E2-32</text>
    <text text-anchor="middle" x="4059.75" y="2417.25" style="font-size:15px; " id="2044007">包厢E2-13</text>
    <text text-anchor="middle" x="4179" y="1962.5" style="font-size:15px; ">包厢E1-22</text>
    <text text-anchor="middle" x="4060.5833333333335" y="2548.75" style="font-size:15px; " id="2044009">包厢E2-14</text>
    <text text-anchor="middle" x="4179" y="2153.75" style="font-size:15px; ">包厢E2-21</text>
    <text text-anchor="middle" x="4179" y="2285.75" style="font-size:15px; ">包厢E2-22</text>
    <text text-anchor="middle" x="4059.75" y="3032.25" style="font-size:15px; ">包厢E3-13</text>
    <text text-anchor="middle" x="4059.75" y="3178.25" style="font-size:15px; " id="2040236">包厢E3-14</text>
    <text text-anchor="middle" x="4059.75" y="2153.75" style="font-size:15px; ">包厢E2-11</text>
    <text text-anchor="middle" x="4059.75" y="1785.1099853515625" style="font-size:15px; ">包厢E1-11</text>
    <text text-anchor="middle" x="4059.75" y="2285.75" style="font-size:15px; ">包厢E2-12</text>
    <text text-anchor="middle" x="4059.75" y="1962.5" style="font-size:15px; " id="2007691">包厢E1-12</text>
    <text text-anchor="middle" x="4179" y="3032.25" style="font-size:15px; " id="2040226">包厢E3-23</text>
    <text text-anchor="middle" x="4179" y="3178.25" style="font-size:15px; " id="2040228">包厢E3-24</text>
    <text text-anchor="middle" x="4059.75" y="2741.75" style="font-size:15px; ">包厢E3-11</text>
    <text text-anchor="middle" x="4059.75" y="2888.25" style="font-size:15px; " id="2040232">包厢E3-12</text>
    <text text-anchor="middle" x="4299" y="3032.25" style="font-size:15px; ">包厢E3-33</text>
    <text text-anchor="middle" x="4299" y="3178.25" style="font-size:15px; ">包厢E3-34</text>
    <text text-anchor="middle" x="4179" y="2741.75" style="font-size:15px; ">包厢E3-21</text>
    <text text-anchor="middle" x="4179" y="2888.25" style="font-size:15px; ">包厢E3-22</text>
    <text text-anchor="middle" x="4419" y="3032.25" style="font-size:15px; ">包厢E3-43</text>
    <text text-anchor="middle" x="4419" y="3178.25" style="font-size:15px; ">包厢E3-44</text>
    <text text-anchor="middle" x="4299" y="2741.75" style="font-size:15px; ">包厢E3-31</text>
    <text text-anchor="middle" x="4299" y="2888.25" style="font-size:15px; ">包厢E3-32</text>
    <text text-anchor="middle" x="4059.75" y="4134.5" style="font-size:15px; ">包厢E5-12</text>
    <text text-anchor="middle" x="4179" y="3955.3589881591306" style="font-size:15px; ">包厢E5-21</text>
    <text text-anchor="middle" x="4059.75" y="3957" style="font-size:15px; " id="2050038">包厢E5-11</text>
    <text text-anchor="middle" x="4539" y="3032.25" style="font-size:15px; " id="2040202">包厢E3-53</text>
    <text text-anchor="middle" x="4539" y="3178.25" style="font-size:15px; ">包厢E3-54</text>
    <text text-anchor="middle" x="4419" y="2741.75" style="font-size:15px; ">包厢E3-41</text>
    <text text-anchor="middle" x="4419" y="2888.25" style="font-size:15px; " id="2040208">包厢E3-42</text>
    <text text-anchor="middle" x="4059.75" y="3633.75" style="font-size:15px; " id="2040194">包厢E4-13</text>
    <text text-anchor="middle" x="4059.75" y="3765.75" style="font-size:15px; ">包厢E4-14</text>
    <text text-anchor="middle" x="4539" y="2741.75" style="font-size:15px; ">包厢E3-51</text>
    <text text-anchor="middle" x="4539" y="2888.25" style="font-size:15px; ">包厢E3-52</text>
    <text text-anchor="middle" x="4179" y="3633.75" style="font-size:15px; ">包厢E4-23</text>
    <text text-anchor="middle" x="4179" y="3765.75" style="font-size:15px; ">包厢E4-24</text>
    <text text-anchor="middle" x="4059.75" y="3371" style="font-size:15px; ">包厢E4-11</text>
    <text text-anchor="middle" x="4059.75" y="3502.25" style="font-size:15px; ">包厢E4-12</text>
    <text text-anchor="middle" x="4299" y="3633.75" style="font-size:15px; ">包厢E4-33</text>
    <text text-anchor="middle" x="4299" y="3765.75" style="font-size:15px; ">包厢E4-34</text>
    <text text-anchor="middle" x="4179" y="3371" style="font-size:15px; ">包厢E4-21</text>
    <text text-anchor="middle" x="4179" y="3502.25" style="font-size:15px; ">包厢E4-22</text>
    <text text-anchor="middle" x="4419" y="3371" style="font-size:15px; ">包厢E4-41</text>
    <text text-anchor="middle" x="4419" y="3502.25" style="font-size:15px; ">包厢E4-42</text>
    <text text-anchor="middle" x="4299" y="3371" style="font-size:15px; ">包厢E4-31</text>
    <text text-anchor="middle" x="4299" y="3502.25" style="font-size:15px; ">包厢E4-32</text>
    <text text-anchor="middle" x="1849.25" y="1962.5" style="font-size:15px; " id="2057058">包厢W5-11</text>
    <text text-anchor="middle" x="1849.25" y="2548.75" style="font-size:15px; ">包厢W4-11</text>
    <text text-anchor="middle" x="1849.25" y="1785.1600341796875" style="font-size:15px; ">包厢W5-12</text>
    <text text-anchor="middle" x="1849.25" y="2417.25" style="font-size:15px; ">包厢W4-12</text>
    <text text-anchor="middle" x="1730" y="1962.5" style="font-size:15px; ">包厢W5-21</text>
    <text text-anchor="middle" x="1849.25" y="2285.75" style="font-size:15px; ">包厢W4-13</text>
    <text text-anchor="middle" x="1849.25" y="2153.75" style="font-size:15px; ">包厢W4-14</text>
    <text text-anchor="middle" x="1610" y="2548.75" style="font-size:15px; ">包厢W4-31</text>
    <text text-anchor="middle" x="1610" y="2417.25" style="font-size:15px; ">包厢W4-32</text>
    <text text-anchor="middle" x="1610" y="2285.75" style="font-size:15px; " id="2036266">包厢W4-33</text>
    <text text-anchor="middle" x="1610" y="2153.75" style="font-size:15px; ">包厢W4-34</text>
    <text text-anchor="middle" x="1730" y="2548.75" style="font-size:15px; " id="2036254">包厢W4-21</text>
    <text text-anchor="middle" x="1730" y="2417.25" style="font-size:15px; ">包厢W4-22</text>
    <text text-anchor="middle" x="1730" y="2285.75" style="font-size:15px; ">包厢W4-23</text>
    <text text-anchor="middle" x="1730" y="2153.75" style="font-size:15px; ">包厢W4-24</text>
    <text text-anchor="middle" x="1849.25" y="4134.505126953125" style="font-size:15px; " id="2023946">包厢W1-11</text>
    <text text-anchor="middle" x="1849.25" y="3957" style="font-size:15px; ">包厢W1-12</text>
    <text text-anchor="middle" x="1730" y="3957" style="font-size:15px; " id="2023950">包厢W1-22</text>
    <text text-anchor="middle" x="1490" y="2548.75" style="font-size:15px; ">包厢W4-41</text>
    <text text-anchor="middle" x="1490" y="2417.25" style="font-size:15px; ">包厢W4-42</text>
    <text text-anchor="middle" x="1490" y="3502.25" style="font-size:15px; ">包厢W2-43</text>
    <text text-anchor="middle" x="1490" y="3371" style="font-size:15px; ">包厢W2-44</text>
    <text text-anchor="middle" x="1610" y="3765.75" style="font-size:15px; ">包厢W2-31</text>
    <text text-anchor="middle" x="1610" y="3633.75" style="font-size:15px; ">包厢W2-32</text>
    <text text-anchor="middle" x="1610" y="3502.25" style="font-size:15px; ">包厢W2-33</text>
    <text text-anchor="middle" x="1610" y="3371" style="font-size:15px; ">包厢W2-34</text>
    <text text-anchor="middle" x="1730" y="3765.75" style="font-size:15px; ">包厢W2-21</text>
    <text text-anchor="middle" x="1730" y="3633.75" style="font-size:15px; ">包厢W2-22</text>
    <text text-anchor="middle" x="1730" y="3502.25" style="font-size:15px; ">包厢W2-23</text>
    <text text-anchor="middle" x="1730" y="3371" style="font-size:15px; ">包厢W2-24</text>
    <text text-anchor="middle" x="1849.25" y="3765.75" style="font-size:15px; " id="2056165">包厢W2-11</text>
    <text text-anchor="middle" x="1849.25" y="3633.75" style="font-size:15px; " id="2056167">包厢W2-12</text>
    <text text-anchor="middle" x="1849.25" y="3502.25" style="font-size:15px; ">包厢W2-13</text>
    <text text-anchor="middle" x="1849.25" y="3371" style="font-size:15px; ">包厢W2-14</text>
    <text text-anchor="middle" x="1730" y="3178.25" style="font-size:15px; ">包厢W3-21</text>
    <text text-anchor="middle" x="1730" y="3032.25" style="font-size:15px; ">包厢W3-22</text>
    <text text-anchor="middle" x="1730" y="2888.25" style="font-size:15px; ">包厢W3-23</text>
    <text text-anchor="middle" x="1730" y="2741.75" style="font-size:15px; ">包厢W3-24</text>
    <text text-anchor="middle" x="1849.25" y="3178.25" style="font-size:15px; ">包厢W3-11</text>
    <text text-anchor="middle" x="1849.25" y="3032.25" style="font-size:15px; ">包厢W3-12</text>
    <text text-anchor="middle" x="1849.25" y="2888.25" style="font-size:15px; " id="2055040">包厢W3-13</text>
    <text text-anchor="middle" x="1849.25" y="2741.75" style="font-size:15px; ">包厢W3-14</text>
    <text text-anchor="middle" x="1370" y="3178.25" style="font-size:15px; ">包厢W3-51</text>
    <text text-anchor="middle" x="1370" y="3032.25" style="font-size:15px; ">包厢W3-52</text>
    <text text-anchor="middle" x="1370" y="2888.25" style="font-size:15px; ">包厢W3-53</text>
    <text text-anchor="middle" x="1370" y="2741.75" style="font-size:15px; ">包厢W3-54</text>
    <text text-anchor="middle" x="1490" y="3178.25" style="font-size:15px; ">包厢W3-41</text>
    <text text-anchor="middle" x="1490" y="3032.25" style="font-size:15px; ">包厢W3-42</text>
    <text text-anchor="middle" x="1490" y="2888.25" style="font-size:15px; ">包厢W3-43</text>
    <text text-anchor="middle" x="1490" y="2741.75" style="font-size:15px; ">包厢W3-44</text>
    <text text-anchor="middle" x="1610" y="3178.25" style="font-size:15px; ">包厢W3-31</text>
    <text text-anchor="middle" x="1610" y="3032.25" style="font-size:15px; ">包厢W3-32</text>
    <text text-anchor="middle" x="1610" y="2888.25" style="font-size:15px; ">包厢W3-33</text>
    <text text-anchor="middle" x="1610" y="2741.75" style="font-size:15px; ">包厢W3-34</text>
    <text text-anchor="middle" x="2955.4246826171875" y="5247.513916015625" style="font-size:70px; ">B1区</text>
    <text text-anchor="middle" x="5057.80517578125" y="3848.8253173828125" style="font-size:70px; ">B14区</text>
    <text text-anchor="middle" x="4574.29052734375" y="4578.973388671875" style="font-size:70px; ">B15区</text>
    <text text-anchor="middle" x="3844.3447265625" y="5063.07568359375" style="font-size:70px; ">B16区</text>
    <text text-anchor="middle" x="3844.1900634765625" y="856.6951599121094" style="font-size:70px; ">B10区</text>
    <text text-anchor="middle" x="4574.27392578125" y="1340.8700256347656" style="font-size:70px; ">B11区</text>
    <text text-anchor="middle" x="5057.87109375" y="2071.2047119140625" style="font-size:70px; ">B12区</text>
    <text text-anchor="middle" x="5241.7802734375" y="2960.01513671875" style="font-size:70px; ">B13区</text>
    <text text-anchor="middle" x="850.534912109375" y="2070.7701416015625" style="font-size:70px; ">B6区</text>
    <text text-anchor="middle" x="1334.7101135253906" y="1340.0548706054688" style="font-size:70px; ">B7区</text>
    <text text-anchor="middle" x="2065.4998779296875" y="856.0799865722656" style="font-size:70px; ">B8区</text>
    <text text-anchor="middle" x="2955.0003662109375" y="672.2799682617188" style="font-size:70px; ">B9区</text>
    <text text-anchor="middle" x="2066.150146484375" y="5063.97998046875" style="font-size:70px; ">B2区</text>
    <text text-anchor="middle" x="1335.3599243164062" y="4580.395751953125" style="font-size:70px; ">B3区</text>
    <text text-anchor="middle" x="850.9100341796875" y="3849.9803466796875" style="font-size:70px; ">B4区</text>
    <text text-anchor="middle" x="666.4231872558594" y="2960.454833984375" style="font-size:70px; ">B5区</text>
    <text text-anchor="middle" x="4866.00048828125" y="2960.045166015625" style="font-size:70px; ">A13区</text>
    <text text-anchor="middle" x="4717.894287109375" y="3717.04443359375" style="font-size:70px; ">A14区</text>
    <text text-anchor="middle" x="4318.9649658203125" y="4323.7347412109375" style="font-size:70px; ">A15区</text>
    <text text-anchor="middle" x="3712.4957275390625" y="4723.175537109375" style="font-size:70px; ">A16区</text>
    <text text-anchor="middle" x="2955.0155029296875" y="1048.0918579101562" style="font-size:70px; ">A9区</text>
    <text text-anchor="middle" x="2197.915283203125" y="4724.093505859375" style="font-size:70px; ">A2区</text>
    <text text-anchor="middle" x="3712.4095458984375" y="1196.6050720214844" style="font-size:70px; ">A10区</text>
    <text text-anchor="middle" x="1590.6448364257812" y="4325.050048828125" style="font-size:70px; ">A3区</text>
    <text text-anchor="middle" x="4319.0091552734375" y="1596.1551513671875" style="font-size:70px; ">A11区</text>
    <text text-anchor="middle" x="4718.01513671875" y="2202.999755859375" style="font-size:70px; ">A12区</text>
    <text text-anchor="middle" x="1042.2299499511719" y="2960.4302978515625" style="font-size:70px; ">A5区</text>
    <text text-anchor="middle" x="1190.3800354003906" y="2202.5302734375" style="font-size:70px; ">A6区</text>
    <text text-anchor="middle" x="1590.02490234375" y="1595.3098754882812" style="font-size:70px; ">A7区</text>
    <text text-anchor="middle" x="2197.385009765625" y="1195.9400634765625" style="font-size:70px; ">A8区</text>
    <text text-anchor="middle" x="2955.394287109375" y="4871.6865234375" style="font-size:70px; ">主席台</text>
    <text text-anchor="middle" x="1190.7700500488281" y="3718.135009765625" style="font-size:70px; ">A4区</text>
    <text text-anchor="middle" x="711.4999084472656" y="1670.3799438476562" style="font-size:40px; ">包房9</text>
    <text text-anchor="middle" x="1119.6401672363281" y="1135.3500366210938" style="font-size:40px; ">包房10</text>
    <text text-anchor="middle" x="1372.5499877929688" y="912.3500061035156" style="font-size:40px; ">包房11</text>
    <text text-anchor="middle" x="1652.459716796875" y="724.385009765625" style="font-size:40px; ">包房12</text>
    <text text-anchor="middle" x="487.40501403808594" y="3720.134765625" style="font-size:40px; ">包房5</text>
    <text text-anchor="middle" x="390.11500549316406" y="3140.9454345703125" style="font-size:40px; ">包房6</text>
    <text text-anchor="middle" x="432.43492126464844" y="2456.0499267578125" style="font-size:40px; ">包房7</text>
    <text text-anchor="middle" x="563.3950042724609" y="1973.570068359375" style="font-size:40px; ">包房8</text>
    <text text-anchor="middle" x="2962.6400146484375" y="5523.785888671875" style="font-size:40px; ">包房1</text>
    <text text-anchor="middle" x="2062.8798828125" y="5366.91455078125" style="font-size:40px; ">包房2</text>
    <text text-anchor="middle" x="1341.9650268554688" y="4956.855224609375" style="font-size:40px; ">包房3</text>
    <text text-anchor="middle" x="680.8100280761719" y="4185.445556640625" style="font-size:40px; ">包房4</text>
    <text text-anchor="middle" x="5231.4345703125" y="4182.334716796875" style="font-size:40px; ">包房21</text>
    <text text-anchor="middle" x="4514.38427734375" y="5013.61474609375" style="font-size:40px; ">包房22</text>
    <text text-anchor="middle" x="3869.079833984375" y="5355.214599609375" style="font-size:40px; ">包房23</text>
    <text text-anchor="middle" x="5339.2548828125" y="1960.1602783203125" style="font-size:40px; ">包房17</text>
    <text text-anchor="middle" x="5472.9306640625" y="2441.695068359375" style="font-size:40px; ">包房18</text>
    <text text-anchor="middle" x="5519.39990234375" y="3125.31494140625" style="font-size:40px; ">包房19</text>
    <text text-anchor="middle" x="5420.84521484375" y="3713.13525390625" style="font-size:40px; ">包房20</text>
    <text text-anchor="middle" x="4243.9549560546875" y="717.5751953125" style="font-size:40px; ">包房13</text>
    <text text-anchor="middle" x="4524.77001953125" y="904.0548095703125" style="font-size:40px; ">包房14</text>
    <text text-anchor="middle" x="4778.744873046875" y="1125.5401611328125" style="font-size:40px; " id="2049120">包房15</text>
    <text text-anchor="middle" x="5189.539306640625" y="1658.1146850585938" style="font-size:40px; " id="2049122">包房16</text>
</svg>
